<?xml version="1.0" encoding="utf-8" standalone="no"?>
<!DOCTYPE svg PUBLIC "-//W3C//DTD SVG 1.1//EN"
  "http://www.w3.org/Graphics/SVG/1.1/DTD/svg11.dtd">
<!-- Created with matplotlib (http://matplotlib.org/) -->
<svg height="432pt" version="1.1" viewBox="0 0 576 432" width="576pt" xmlns="http://www.w3.org/2000/svg" xmlns:xlink="http://www.w3.org/1999/xlink">
 <defs>
  <style type="text/css">
*{stroke-linecap:butt;stroke-linejoin:round;stroke-miterlimit:100000;}
  </style>
 </defs>
 <g id="figure_1">
  <g id="patch_1">
   <path d="M 0 432 
L 576 432 
L 576 0 
L 0 0 
z
" style="fill:#ffffff;"/>
  </g>
  <g id="axes_1">
   <g id="patch_2">
    <path d="M 72 388.8 
L 518.4 388.8 
L 518.4 43.2 
L 72 43.2 
z
" style="fill:#ffffff;"/>
   </g>
   <g id="line2d_1">
    <path clip-path="url(#p2dfa090d9b)" d="M 72 378.222809 
L 76.509091 368.524006 
L 81.018182 359.140576 
L 85.527273 350.063172 
L 90.036364 341.282786 
L 94.545455 332.79073 
L 99.054545 324.578635 
L 103.563636 316.638435 
L 108.072727 308.962359 
L 112.581818 301.542927 
L 117.090909 294.372931 
L 121.6 287.445432 
L 126.109091 280.75375 
L 130.618182 274.291452 
L 135.127273 268.052344 
L 139.636364 262.030461 
L 144.145455 256.220057 
L 148.654545 250.615596 
L 153.163636 245.211745 
L 157.672727 240.003359 
L 162.181818 234.985475 
L 166.690909 230.153302 
L 171.2 225.502213 
L 175.709091 221.02773 
L 180.218182 216.725522 
L 184.727273 212.591388 
L 189.236364 208.621255 
L 193.745455 204.811162 
L 198.254545 201.157253 
L 202.763636 197.655768 
L 207.272727 194.303033 
L 211.781818 191.09545 
L 216.290909 188.029488 
L 220.8 185.101673 
L 225.309091 182.308578 
L 229.818182 179.646816 
L 234.327273 177.113027 
L 238.836364 174.70387 
L 243.345455 172.416015 
L 247.854545 170.24613 
L 252.363636 168.190874 
L 256.872727 166.246888 
L 261.381818 164.410782 
L 265.890909 162.679131 
L 270.4 161.048458 
L 274.909091 159.515232 
L 279.418182 158.075854 
L 283.927273 156.726648 
L 288.436364 155.463853 
L 292.945455 154.283611 
L 297.454545 153.181961 
L 301.963636 152.154824 
L 306.472727 151.198 
L 310.981818 150.307155 
L 315.490909 149.477809 
L 320 148.705331 
L 324.509091 147.984928 
L 329.018182 147.311634 
L 333.527273 146.680303 
L 338.036364 146.085595 
L 342.545455 145.521972 
L 347.054545 144.983686 
L 351.563636 144.464767 
L 356.072727 143.959017 
L 360.581818 143.46 
L 365.090909 142.961031 
L 369.6 142.455165 
L 374.109091 141.935194 
L 378.618182 141.393628 
L 383.127273 140.822694 
L 387.636364 140.214322 
L 392.145455 139.560136 
L 396.654545 138.851444 
L 401.163636 138.07923 
L 405.672727 137.234145 
L 410.181818 136.306494 
L 414.690909 135.286229 
L 419.2 134.16294 
L 423.709091 132.925844 
L 428.218182 131.563775 
L 432.727273 130.065177 
L 437.236364 128.418092 
L 441.745455 126.610151 
L 446.254545 124.628566 
L 450.763636 122.460117 
L 455.272727 120.091146 
L 459.781818 117.507547 
L 464.290909 114.694754 
L 468.8 111.637733 
L 473.309091 108.320973 
L 477.818182 104.728476 
L 482.327273 100.843747 
L 486.836364 96.649785 
L 491.345455 92.129073 
L 495.854545 87.263569 
L 500.363636 82.034696 
L 504.872727 76.423332 
L 509.381818 70.409802 
L 513.890909 63.973866 
L 518.4 57.094714 
" style="fill:none;stroke:#0000ff;stroke-linecap:square;"/>
   </g>
   <g id="patch_3">
    <path d="M 72 388.8 
L 518.4 388.8 
" style="fill:none;stroke:#000000;stroke-linecap:square;stroke-linejoin:miter;"/>
   </g>
   <g id="patch_4">
    <path d="M 72 388.8 
L 72 43.2 
" style="fill:none;stroke:#000000;stroke-linecap:square;stroke-linejoin:miter;"/>
   </g>
   <g id="matplotlib.axis_1">
    <g id="xtick_1">
     <g id="line2d_2">
      <defs>
       <path d="M 0 0 
L 0 -4 
" id="m058d47a8a2" style="stroke:#000000;stroke-width:0.5;"/>
      </defs>
      <g>
       <use style="stroke:#000000;stroke-width:0.5;" x="72.0" xlink:href="#m058d47a8a2" y="388.8"/>
      </g>
     </g>
     <g id="text_1">
      <text style="font-family:Bitstream Vera Sans;font-size:16.0px;font-style:normal;font-weight:400;text-anchor:middle;" transform="rotate(-0.000000, 72.000000, 404.957500)" x="72.0" y="404.9575">−1.0</text>
     </g>
    </g>
    <g id="xtick_2">
     <g id="line2d_3">
      <g>
       <use style="stroke:#000000;stroke-width:0.5;" x="183.6" xlink:href="#m058d47a8a2" y="388.8"/>
      </g>
     </g>
     <g id="text_2">
      <text style="font-family:Bitstream Vera Sans;font-size:16.0px;font-style:normal;font-weight:400;text-anchor:middle;" transform="rotate(-0.000000, 183.600000, 404.957500)" x="183.6" y="404.9575">−0.5</text>
     </g>
    </g>
    <g id="xtick_3">
     <g id="line2d_4">
      <g>
       <use style="stroke:#000000;stroke-width:0.5;" x="295.2" xlink:href="#m058d47a8a2" y="388.8"/>
      </g>
     </g>
     <g id="text_3">
      <text style="font-family:Bitstream Vera Sans;font-size:16.0px;font-style:normal;font-weight:400;text-anchor:middle;" transform="rotate(-0.000000, 295.200000, 404.957500)" x="295.2" y="404.9575">0.0</text>
     </g>
    </g>
    <g id="xtick_4">
     <g id="line2d_5">
      <g>
       <use style="stroke:#000000;stroke-width:0.5;" x="406.8" xlink:href="#m058d47a8a2" y="388.8"/>
      </g>
     </g>
     <g id="text_4">
      <text style="font-family:Bitstream Vera Sans;font-size:16.0px;font-style:normal;font-weight:400;text-anchor:middle;" transform="rotate(-0.000000, 406.800000, 404.957500)" x="406.8" y="404.9575">0.5</text>
     </g>
    </g>
    <g id="xtick_5">
     <g id="line2d_6">
      <g>
       <use style="stroke:#000000;stroke-width:0.5;" x="518.4" xlink:href="#m058d47a8a2" y="388.8"/>
      </g>
     </g>
     <g id="text_5">
      <text style="font-family:Bitstream Vera Sans;font-size:16.0px;font-style:normal;font-weight:400;text-anchor:middle;" transform="rotate(-0.000000, 518.400000, 404.957500)" x="518.4" y="404.9575">1.0</text>
     </g>
    </g>
    <g id="text_6">
     <text style="font-family:Bitstream Vera Sans;font-size:16.0px;font-style:normal;font-weight:400;text-anchor:middle;" transform="rotate(-0.000000, 295.200000, 425.442500)" x="295.2" y="425.4425">$x$</text>
    </g>
   </g>
   <g id="matplotlib.axis_2">
    <g id="ytick_1">
     <g id="line2d_7">
      <defs>
       <path d="M 0 0 
L 4 0 
" id="m29b30dd7b1" style="stroke:#000000;stroke-width:0.5;"/>
      </defs>
      <g>
       <use style="stroke:#000000;stroke-width:0.5;" x="72.0" xlink:href="#m29b30dd7b1" y="388.8"/>
      </g>
     </g>
     <g id="text_7">
      <text style="font-family:Bitstream Vera Sans;font-size:16.0px;font-style:normal;font-weight:400;text-anchor:end;" transform="rotate(-0.000000, 68.000000, 393.215000)" x="68.0" y="393.215">−1.5</text>
     </g>
    </g>
    <g id="ytick_2">
     <g id="line2d_8">
      <g>
       <use style="stroke:#000000;stroke-width:0.5;" x="72.0" xlink:href="#m29b30dd7b1" y="339.428571429"/>
      </g>
     </g>
     <g id="text_8">
      <text style="font-family:Bitstream Vera Sans;font-size:16.0px;font-style:normal;font-weight:400;text-anchor:end;" transform="rotate(-0.000000, 68.000000, 343.843571)" x="68.0" y="343.843571429">−1.0</text>
     </g>
    </g>
    <g id="ytick_3">
     <g id="line2d_9">
      <g>
       <use style="stroke:#000000;stroke-width:0.5;" x="72.0" xlink:href="#m29b30dd7b1" y="290.057142857"/>
      </g>
     </g>
     <g id="text_9">
      <text style="font-family:Bitstream Vera Sans;font-size:16.0px;font-style:normal;font-weight:400;text-anchor:end;" transform="rotate(-0.000000, 68.000000, 294.472143)" x="68.0" y="294.472142857">−0.5</text>
     </g>
    </g>
    <g id="ytick_4">
     <g id="line2d_10">
      <g>
       <use style="stroke:#000000;stroke-width:0.5;" x="72.0" xlink:href="#m29b30dd7b1" y="240.685714286"/>
      </g>
     </g>
     <g id="text_10">
      <text style="font-family:Bitstream Vera Sans;font-size:16.0px;font-style:normal;font-weight:400;text-anchor:end;" transform="rotate(-0.000000, 68.000000, 245.100714)" x="68.0" y="245.100714286">0.0</text>
     </g>
    </g>
    <g id="ytick_5">
     <g id="line2d_11">
      <g>
       <use style="stroke:#000000;stroke-width:0.5;" x="72.0" xlink:href="#m29b30dd7b1" y="191.314285714"/>
      </g>
     </g>
     <g id="text_11">
      <text style="font-family:Bitstream Vera Sans;font-size:16.0px;font-style:normal;font-weight:400;text-anchor:end;" transform="rotate(-0.000000, 68.000000, 195.729286)" x="68.0" y="195.729285714">0.5</text>
     </g>
    </g>
    <g id="ytick_6">
     <g id="line2d_12">
      <g>
       <use style="stroke:#000000;stroke-width:0.5;" x="72.0" xlink:href="#m29b30dd7b1" y="141.942857143"/>
      </g>
     </g>
     <g id="text_12">
      <text style="font-family:Bitstream Vera Sans;font-size:16.0px;font-style:normal;font-weight:400;text-anchor:end;" transform="rotate(-0.000000, 68.000000, 146.357857)" x="68.0" y="146.357857143">1.0</text>
     </g>
    </g>
    <g id="ytick_7">
     <g id="line2d_13">
      <g>
       <use style="stroke:#000000;stroke-width:0.5;" x="72.0" xlink:href="#m29b30dd7b1" y="92.5714285714"/>
      </g>
     </g>
     <g id="text_13">
      <text style="font-family:Bitstream Vera Sans;font-size:16.0px;font-style:normal;font-weight:400;text-anchor:end;" transform="rotate(-0.000000, 68.000000, 96.986429)" x="68.0" y="96.9864285714">1.5</text>
     </g>
    </g>
    <g id="ytick_8">
     <g id="line2d_14">
      <g>
       <use style="stroke:#000000;stroke-width:0.5;" x="72.0" xlink:href="#m29b30dd7b1" y="43.2"/>
      </g>
     </g>
     <g id="text_14">
      <text style="font-family:Bitstream Vera Sans;font-size:16.0px;font-style:normal;font-weight:400;text-anchor:end;" transform="rotate(-0.000000, 68.000000, 47.615000)" x="68.0" y="47.615">2.0</text>
     </g>
    </g>
    <g id="text_15">
     <text style="font-family:Bitstream Vera Sans;font-size:16.0px;font-style:normal;font-weight:400;text-anchor:middle;" transform="rotate(-90.000000, 20.375000, 216.000000)" x="20.375" y="216.0">$L_{1}$</text>
    </g>
   </g>
   <g id="legend_1">
    <g id="line2d_15">
     <path d="M 371.742 214.311 
L 398.622 214.311 
" style="fill:none;stroke:#0000ff;stroke-linecap:square;"/>
    </g>
    <g id="line2d_16"/>
    <g id="text_16">
     <text style="font-family:Bitstream Vera Sans;font-size:19.2px;font-style:normal;font-weight:400;text-anchor:start;" transform="rotate(-0.000000, 419.742000, 221.031000)" x="419.742" y="221.031">$L_{1}$</text>
    </g>
   </g>
  </g>
 </g>
 <defs>
  <clipPath id="p2dfa090d9b">
   <rect height="345.6" width="446.4" x="72.0" y="43.2"/>
  </clipPath>
 </defs>
</svg>
