<?xml version="1.0" encoding="UTF-8" standalone="no"?>
<!-- Created with matplotlib (http://matplotlib.org/) -->

<svg
   xmlns:dc="http://purl.org/dc/elements/1.1/"
   xmlns:cc="http://creativecommons.org/ns#"
   xmlns:rdf="http://www.w3.org/1999/02/22-rdf-syntax-ns#"
   xmlns:svg="http://www.w3.org/2000/svg"
   xmlns="http://www.w3.org/2000/svg"
   xmlns:sodipodi="http://sodipodi.sourceforge.net/DTD/sodipodi-0.dtd"
   xmlns:inkscape="http://www.inkscape.org/namespaces/inkscape"
   height="432pt"
   version="1.1"
   viewBox="0 0 576 432"
   width="576pt"
   id="svg204"
   sodipodi:docname="bag_rf_cv.svg"
   inkscape:version="0.92.2 (5c3e80d, 2017-08-06)">
  <metadata
     id="metadata208">
    <rdf:RDF>
      <cc:Work
         rdf:about="">
        <dc:format>image/svg+xml</dc:format>
        <dc:type
           rdf:resource="http://purl.org/dc/dcmitype/StillImage" />
      </cc:Work>
    </rdf:RDF>
  </metadata>
  <sodipodi:namedview
     pagecolor="#ffffff"
     bordercolor="#666666"
     borderopacity="1"
     objecttolerance="10"
     gridtolerance="10"
     guidetolerance="10"
     inkscape:pageopacity="0"
     inkscape:pageshadow="2"
     inkscape:window-width="1920"
     inkscape:window-height="951"
     id="namedview206"
     showgrid="false"
     inkscape:zoom="1.33"
     inkscape:cx="233.99414"
     inkscape:cy="286.49624"
     inkscape:window-x="0"
     inkscape:window-y="27"
     inkscape:window-maximized="1"
     inkscape:current-layer="legend_1" />
  <defs
     id="defs4">
    <style
       type="text/css"
       id="style2">
*{stroke-linecap:butt;stroke-linejoin:round;stroke-miterlimit:100000;}
  </style>
  </defs>
  <g
     id="figure_1">
    <g
       id="patch_1">
      <path
         d="M 0 432  L 576 432  L 576 0  L 0 0  z "
         style="fill:#ffffff;"
         id="path6" />
    </g>
    <g
       id="axes_1">
      <g
         id="patch_2">
        <path
           d="M 72 388.8  L 518.4 388.8  L 518.4 43.2  L 72 43.2  z "
           style="fill:#ffffff;"
           id="path9" />
      </g>
      <g
         id="line2d_1">
        <path
           clip-path="url(#pb2434df2c7)"
           d="M 72 82.014687  L 72.894589 63.019355  L 73.789178 64.004313  L 74.683768 86.579827  L 75.578357 98.213738  L 76.472946 117.857511  L 77.367535 141.444156  L 78.262124 156.561618  L 79.156713 154.862128  L 80.051303 180.636496  L 80.945892 181.126847  L 81.840481 192.749758  L 82.73507 209.137906  L 83.629659 214.162275  L 84.524248 220.411849  L 85.418838 227.52  L 87.208016 239.04  L 88.102605 252.096  L 88.997194 245.952  L 89.891784 255.936  L 90.786373 262.08  L 92.575551 271.296  L 93.47014 272.832  L 94.364729 281.28  L 95.259319 286.656  L 97.048497 294.336  L 97.943086 289.728  L 98.837675 300.48  L 99.732265 302.784  L 100.626854 296.64  L 101.521443 299.712  L 103.310621 314.304  L 104.20521 306.624  L 105.0998 310.464  L 105.994389 306.624  L 106.888978 315.84  L 107.783567 314.304  L 108.678156 315.072  L 109.572745 323.52  L 110.467335 321.216  L 111.361924 319.68  L 112.256513 320.448  L 113.151102 318.912  L 114.045691 316.608  L 114.940281 321.216  L 116.729459 321.216  L 117.624048 318.912  L 118.518637 320.448  L 119.413226 319.68  L 121.202405 331.2  L 122.096994 327.36  L 122.991583 327.36  L 124.780762 333.504  L 125.675351 334.272  L 126.56994 332.736  L 127.464529 338.112  L 128.359118 334.272  L 129.253707 337.344  L 130.148297 338.88  L 131.042886 337.344  L 131.937475 336.576  L 132.832064 340.416  L 134.621242 335.808  L 135.515832 341.184  L 136.410421 341.184  L 137.30501 338.88  L 138.199599 338.88  L 139.094188 340.416  L 139.988778 338.112  L 140.883367 343.488  L 141.777956 341.184  L 142.672545 341.952  L 143.567134 338.88  L 144.461723 340.416  L 145.356313 342.72  L 146.250902 343.488  L 147.145491 341.184  L 148.04008 342.72  L 148.934669 345.024  L 149.829259 344.256  L 150.723848 341.184  L 151.618437 344.256  L 152.513026 345.024  L 153.407615 342.72  L 154.302204 344.256  L 155.196794 343.488  L 156.985972 346.56  L 157.880561 344.256  L 158.77515 344.256  L 159.669739 347.328  L 160.564329 345.024  L 161.458918 348.096  L 162.353507 343.488  L 163.248096 343.488  L 164.142685 345.792  L 165.037275 342.72  L 165.931864 341.952  L 166.826453 341.952  L 167.721042 340.416  L 168.615631 341.952  L 169.51022 344.256  L 170.40481 338.88  L 171.299399 342.72  L 172.193988 343.488  L 173.088577 342.72  L 173.983166 341.184  L 174.877756 344.256  L 176.666934 342.72  L 177.561523 345.792  L 178.456112 341.952  L 179.350701 346.56  L 180.245291 346.56  L 181.13988 345.792  L 182.034469 345.792  L 182.929058 348.096  L 183.823647 344.256  L 184.718236 348.864  L 185.612826 343.488  L 186.507415 348.864  L 187.402004 348.096  L 188.296593 348.864  L 189.191182 348.864  L 190.980361 342.72  L 191.87495 341.952  L 192.769539 345.024  L 193.664128 345.024  L 194.558717 347.328  L 195.453307 345.792  L 196.347896 345.792  L 197.242485 347.328  L 198.137074 345.792  L 199.926253 344.256  L 200.820842 345.792  L 201.715431 346.56  L 202.61002 345.792  L 203.504609 347.328  L 204.399198 345.024  L 205.293788 345.792  L 206.188377 347.328  L 207.082966 345.792  L 207.977555 346.56  L 208.872144 343.488  L 209.766733 347.328  L 210.661323 346.56  L 211.555912 348.096  L 214.239679 345.792  L 215.134269 345.792  L 216.028858 346.56  L 217.818036 346.56  L 218.712625 347.328  L 219.607214 345.792  L 220.501804 348.864  L 221.396393 349.632  L 222.290982 347.328  L 223.185571 347.328  L 224.08016 351.936  L 224.974749 350.4  L 225.869339 349.632  L 226.763928 349.632  L 227.658517 348.096  L 228.553106 350.4  L 229.447695 348.096  L 230.342285 347.328  L 231.236874 348.864  L 232.131463 348.864  L 233.026052 348.096  L 233.920641 348.864  L 234.81523 348.096  L 235.70982 346.56  L 236.604409 345.792  L 237.498998 345.792  L 239.288176 347.328  L 240.182766 346.56  L 241.077355 347.328  L 241.971944 348.864  L 242.866533 345.792  L 243.761122 344.256  L 244.655711 348.096  L 245.550301 345.792  L 246.44489 346.56  L 248.234068 346.56  L 249.128657 347.328  L 250.917836 351.936  L 251.812425 351.936  L 252.707014 350.4  L 253.601603 352.704  L 254.496192 348.096  L 255.390782 348.096  L 256.285371 350.4  L 257.17996 348.864  L 258.074549 348.096  L 258.969138 348.096  L 259.863727 347.328  L 260.758317 349.632  L 261.652906 346.56  L 262.547495 345.024  L 263.442084 345.792  L 264.336673 345.024  L 265.231263 346.56  L 266.125852 341.184  L 267.91503 345.792  L 268.809619 345.024  L 269.704208 345.024  L 271.493387 346.56  L 272.387976 345.024  L 275.071743 347.328  L 275.966333 347.328  L 276.860922 348.096  L 277.755511 347.328  L 278.6501 347.328  L 279.544689 345.792  L 280.439279 347.328  L 281.333868 344.256  L 283.123046 345.792  L 284.017635 345.024  L 284.912224 346.56  L 285.806814 347.328  L 286.701403 345.792  L 287.595992 346.56  L 288.490581 345.792  L 289.38517 347.328  L 291.174349 345.792  L 292.068938 348.096  L 292.963527 348.864  L 293.858116 347.328  L 294.752705 347.328  L 295.647295 346.56  L 297.436473 348.096  L 298.331062 346.56  L 299.225651 345.792  L 300.12024 347.328  L 301.01483 345.024  L 301.909419 347.328  L 302.804008 348.096  L 303.698597 348.096  L 305.487776 346.56  L 306.382365 346.56  L 308.171543 345.024  L 309.066132 345.792  L 309.960721 348.864  L 310.855311 348.096  L 311.7499 346.56  L 313.539078 346.56  L 314.433667 344.256  L 316.222846 345.792  L 317.117435 347.328  L 318.012024 347.328  L 318.906613 345.792  L 319.801202 345.792  L 320.695792 344.256  L 322.48497 347.328  L 323.379559 346.56  L 324.274148 346.56  L 325.168737 348.096  L 326.063327 345.792  L 326.957916 345.792  L 328.747094 347.328  L 329.641683 347.328  L 330.536273 345.792  L 331.430862 345.792  L 332.325451 345.024  L 333.22004 346.56  L 334.114629 346.56  L 335.009218 347.328  L 335.903808 346.56  L 336.798397 348.096  L 337.692986 346.56  L 338.587575 348.864  L 339.482164 347.328  L 340.376754 346.56  L 343.95511 346.56  L 344.849699 345.792  L 345.744289 345.792  L 346.638878 347.328  L 347.533467 345.792  L 349.322645 344.256  L 350.217234 345.792  L 351.111824 343.488  L 352.006413 345.024  L 352.901002 345.792  L 354.69018 345.792  L 355.58477 345.024  L 356.479359 345.024  L 357.373948 346.56  L 359.163126 346.56  L 360.057715 348.096  L 360.952305 347.328  L 361.846894 345.792  L 362.741483 348.096  L 363.636072 347.328  L 364.530661 345.792  L 369.003607 345.792  L 370.792786 347.328  L 371.687375 346.56  L 372.581964 346.56  L 374.371142 348.096  L 375.265731 348.096  L 376.160321 348.864  L 377.949499 348.864  L 378.844088 348.096  L 379.738677 348.864  L 381.527856 348.864  L 382.422445 349.632  L 385.106212 349.632  L 386.000802 348.864  L 386.895391 350.4  L 387.78998 349.632  L 388.684569 349.632  L 389.579158 347.328  L 390.473747 347.328  L 391.368337 348.864  L 392.262926 348.864  L 393.157515 350.4  L 394.946693 347.328  L 395.841283 346.56  L 396.735872 348.096  L 397.630461 348.096  L 398.52505 346.56  L 399.419639 347.328  L 400.314228 345.024  L 401.208818 345.792  L 402.103407 345.792  L 402.997996 347.328  L 403.892585 345.792  L 404.787174 346.56  L 405.681764 346.56  L 406.576353 345.024  L 409.26012 347.328  L 411.943888 347.328  L 412.838477 348.096  L 413.733066 346.56  L 414.627655 346.56  L 415.522244 347.328  L 416.416834 346.56  L 418.206012 346.56  L 419.100601 347.328  L 419.99519 346.56  L 420.88978 345.024  L 421.784369 347.328  L 422.678958 347.328  L 423.573547 348.096  L 424.468136 348.096  L 425.362725 346.56  L 426.257315 345.792  L 427.151904 346.56  L 428.046493 345.792  L 428.941082 346.56  L 429.835671 348.096  L 430.730261 346.56  L 431.62485 346.56  L 432.519439 347.328  L 433.414028 346.56  L 435.203206 346.56  L 436.992385 345.024  L 437.886974 345.792  L 438.781563 343.488  L 439.676152 345.792  L 440.570741 345.792  L 441.465331 345.024  L 442.35992 345.024  L 443.254509 345.792  L 444.149098 345.024  L 447.727455 345.024  L 448.622044 345.792  L 449.516633 345.024  L 450.411222 345.024  L 451.305812 343.488  L 452.200401 344.256  L 453.09499 343.488  L 453.989579 344.256  L 454.884168 343.488  L 455.778758 344.256  L 456.673347 344.256  L 457.567936 345.024  L 458.462525 344.256  L 459.357114 346.56  L 460.251703 346.56  L 461.146293 345.792  L 462.935471 345.792  L 465.619238 348.096  L 466.513828 346.56  L 467.408417 346.56  L 468.303006 348.096  L 470.986774 348.096  L 471.881363 348.864  L 472.775952 348.096  L 473.670541 348.864  L 474.56513 348.096  L 476.354309 348.096  L 477.248898 347.328  L 478.143487 347.328  L 479.038076 348.096  L 479.932665 349.632  L 480.827255 348.864  L 482.616433 348.864  L 483.511022 349.632  L 484.405611 348.096  L 485.3002 349.632  L 486.19479 348.864  L 487.983968 348.864  L 488.878557 349.632  L 489.773146 349.632  L 490.667735 350.4  L 491.562325 349.632  L 492.456914 349.632  L 493.351503 348.096  L 494.246092 348.864  L 495.140681 350.4  L 499.613627 350.4  L 500.508216 349.632  L 501.402806 350.4  L 504.086573 350.4  L 504.981162 349.632  L 505.875752 350.4  L 506.770341 349.632  L 507.66493 349.632  L 508.559519 348.096  L 510.348697 349.632  L 511.243287 351.168  L 512.137876 348.864  L 513.032465 348.096  L 513.927054 348.096  L 515.716232 349.632  L 516.610822 348.864  L 518.4 350.4  L 518.4 350.4  "
           style="fill:none;opacity:0.6;stroke:#0000ff;stroke-linecap:square;"
           id="path12" />
      </g>
      <g
         id="line2d_2">
        <path
           clip-path="url(#pb2434df2c7)"
           d="M 72 121.409935  L 72.894589 131.406452  L 73.789178 148.909744  L 74.683768 169.786047  L 75.578357 167.355966  L 76.472946 174.866609  L 77.367535 190.970138  L 78.262124 203.961466  L 79.156713 203.390461  L 80.051303 214.996028  L 80.945892 232.661669  L 81.840481 225.6  L 82.73507 242.165008  L 83.629659 246.193424  L 84.524248 251.582358  L 85.418838 255.768135  L 86.313427 246.632413  L 87.208016 256.704  L 88.102605 263.616  L 88.997194 265.152  L 89.891784 272.832  L 90.786373 271.296  L 91.680962 276.672  L 92.575551 284.352  L 93.47014 288.192  L 94.364729 288.192  L 95.259319 290.496  L 96.153908 291.264  L 97.048497 291.264  L 97.943086 298.176  L 98.837675 299.712  L 99.732265 305.088  L 100.626854 295.104  L 101.521443 298.944  L 102.416032 305.088  L 104.20521 306.624  L 105.0998 306.624  L 105.994389 302.784  L 106.888978 308.928  L 107.783567 306.624  L 108.678156 308.928  L 109.572745 310.464  L 110.467335 311.232  L 111.361924 302.784  L 112.256513 302.016  L 114.045691 306.624  L 114.940281 304.32  L 115.83487 305.088  L 116.729459 309.696  L 117.624048 307.392  L 118.518637 308.928  L 119.413226 303.552  L 120.307816 307.392  L 121.202405 310.464  L 122.096994 308.928  L 122.991583 305.856  L 123.886172 309.696  L 124.780762 305.088  L 125.675351 306.624  L 126.56994 302.016  L 127.464529 305.856  L 128.359118 305.856  L 129.253707 308.16  L 130.148297 305.088  L 131.042886 304.32  L 131.937475 305.088  L 132.832064 304.32  L 133.726653 306.624  L 134.621242 310.464  L 135.515832 308.16  L 136.410421 309.696  L 137.30501 306.624  L 138.199599 308.16  L 139.988778 308.16  L 141.777956 306.624  L 142.672545 307.392  L 144.461723 310.464  L 146.250902 307.392  L 147.145491 311.232  L 148.04008 308.16  L 149.829259 308.16  L 150.723848 311.232  L 152.513026 311.232  L 153.407615 312  L 154.302204 310.464  L 155.196794 310.464  L 156.091383 312  L 156.985972 311.232  L 157.880561 308.928  L 158.77515 311.232  L 159.669739 311.232  L 160.564329 309.696  L 162.353507 311.232  L 163.248096 313.536  L 165.037275 310.464  L 165.931864 309.696  L 166.826453 310.464  L 167.721042 309.696  L 169.51022 314.304  L 170.40481 311.232  L 171.299399 315.84  L 172.193988 316.608  L 173.088577 316.608  L 173.983166 315.84  L 177.561523 318.912  L 180.245291 316.608  L 181.13988 318.912  L 182.034469 318.144  L 182.929058 320.448  L 183.823647 316.608  L 184.718236 321.216  L 185.612826 315.84  L 186.507415 315.84  L 187.402004 316.608  L 188.296593 314.304  L 189.191182 318.144  L 190.085772 313.536  L 190.980361 315.072  L 191.87495 312.768  L 192.769539 317.376  L 193.664128 316.608  L 194.558717 318.144  L 195.453307 317.376  L 196.347896 317.376  L 197.242485 315.84  L 198.137074 318.144  L 199.031663 318.912  L 199.926253 314.304  L 200.820842 318.912  L 201.715431 316.608  L 202.61002 317.376  L 203.504609 317.376  L 204.399198 316.608  L 205.293788 316.608  L 206.188377 318.912  L 207.082966 318.144  L 207.977555 316.608  L 208.872144 314.304  L 209.766733 315.84  L 210.661323 315.072  L 212.450501 321.216  L 213.34509 318.144  L 214.239679 316.608  L 216.028858 318.144  L 216.923447 319.68  L 217.818036 318.144  L 218.712625 319.68  L 219.607214 317.376  L 221.396393 320.448  L 223.185571 318.912  L 224.08016 317.376  L 225.869339 318.912  L 226.763928 317.376  L 227.658517 318.912  L 228.553106 318.912  L 229.447695 321.216  L 230.342285 320.448  L 231.236874 322.752  L 233.026052 319.68  L 233.920641 321.984  L 234.81523 322.752  L 235.70982 321.216  L 237.498998 319.68  L 238.393587 320.448  L 239.288176 322.752  L 240.182766 319.68  L 241.077355 321.984  L 242.866533 321.984  L 243.761122 319.68  L 244.655711 323.52  L 245.550301 321.216  L 246.44489 319.68  L 247.339479 317.376  L 248.234068 320.448  L 249.128657 317.376  L 250.917836 315.84  L 251.812425 320.448  L 252.707014 318.144  L 253.601603 318.912  L 254.496192 318.912  L 255.390782 316.608  L 256.285371 319.68  L 257.17996 319.68  L 258.074549 318.144  L 258.969138 318.144  L 259.863727 320.448  L 260.758317 319.68  L 262.547495 319.68  L 263.442084 318.912  L 264.336673 320.448  L 265.231263 320.448  L 266.125852 319.68  L 267.020441 320.448  L 267.91503 320.448  L 268.809619 321.984  L 269.704208 320.448  L 270.598798 322.752  L 271.493387 321.984  L 272.387976 321.984  L 274.177154 320.448  L 275.071743 320.448  L 275.966333 322.752  L 276.860922 321.984  L 278.6501 321.984  L 279.544689 319.68  L 280.439279 319.68  L 281.333868 320.448  L 282.228457 318.144  L 283.123046 320.448  L 284.017635 318.144  L 284.912224 318.144  L 285.806814 316.608  L 286.701403 315.84  L 287.595992 319.68  L 288.490581 316.608  L 289.38517 318.912  L 290.27976 317.376  L 291.174349 318.912  L 292.068938 318.912  L 292.963527 317.376  L 293.858116 316.608  L 294.752705 316.608  L 295.647295 315.84  L 297.436473 317.376  L 299.225651 315.84  L 300.12024 316.608  L 301.01483 315.072  L 302.804008 316.608  L 304.593186 315.072  L 305.487776 315.84  L 306.382365 314.304  L 307.276954 314.304  L 308.171543 312  L 309.066132 313.536  L 309.960721 315.84  L 310.855311 313.536  L 311.7499 312.768  L 312.644489 315.072  L 313.539078 315.072  L 314.433667 315.84  L 315.328257 315.072  L 316.222846 315.072  L 317.117435 318.144  L 318.012024 315.84  L 319.801202 315.84  L 322.48497 313.536  L 323.379559 315.84  L 324.274148 313.536  L 325.168737 315.84  L 326.063327 315.072  L 326.957916 315.84  L 327.852505 315.072  L 328.747094 316.608  L 331.430862 316.608  L 332.325451 315.84  L 333.22004 317.376  L 334.114629 318.144  L 335.903808 318.144  L 336.798397 315.84  L 337.692986 318.144  L 338.587575 315.84  L 341.271343 315.84  L 342.165932 316.608  L 343.060521 316.608  L 343.95511 315.072  L 344.849699 315.84  L 345.744289 315.84  L 347.533467 314.304  L 348.428056 314.304  L 349.322645 315.072  L 350.217234 315.072  L 351.111824 315.84  L 354.69018 312.768  L 356.479359 314.304  L 357.373948 312.768  L 358.268537 315.84  L 359.163126 315.84  L 360.057715 315.072  L 360.952305 315.84  L 361.846894 315.072  L 362.741483 316.608  L 363.636072 315.84  L 364.530661 317.376  L 366.31984 317.376  L 367.214429 318.144  L 369.003607 318.144  L 369.898196 318.912  L 371.687375 318.912  L 372.581964 318.144  L 373.476553 316.608  L 374.371142 317.376  L 375.265731 317.376  L 376.160321 316.608  L 377.05491 318.912  L 377.949499 318.912  L 378.844088 318.144  L 379.738677 318.144  L 380.633267 317.376  L 382.422445 318.912  L 383.317034 317.376  L 384.211623 318.144  L 385.106212 317.376  L 386.000802 317.376  L 386.895391 318.144  L 388.684569 316.608  L 389.579158 316.608  L 390.473747 317.376  L 391.368337 317.376  L 392.262926 316.608  L 393.157515 318.144  L 394.052104 318.144  L 394.946693 317.376  L 395.841283 318.144  L 396.735872 319.68  L 397.630461 317.376  L 398.52505 318.912  L 399.419639 318.144  L 401.208818 319.68  L 402.103407 317.376  L 402.997996 318.144  L 403.892585 319.68  L 404.787174 318.144  L 405.681764 319.68  L 406.576353 318.144  L 407.470942 317.376  L 408.365531 317.376  L 409.26012 316.608  L 410.154709 317.376  L 411.049299 315.84  L 411.943888 316.608  L 412.838477 316.608  L 413.733066 315.84  L 414.627655 316.608  L 415.522244 314.304  L 416.416834 314.304  L 417.311423 315.84  L 418.206012 314.304  L 419.100601 315.84  L 420.88978 315.84  L 421.784369 315.072  L 422.678958 315.072  L 423.573547 315.84  L 424.468136 315.072  L 425.362725 316.608  L 426.257315 315.84  L 427.151904 318.912  L 428.046493 318.144  L 429.835671 318.144  L 430.730261 316.608  L 431.62485 316.608  L 432.519439 318.144  L 433.414028 318.144  L 434.308617 316.608  L 435.203206 318.912  L 436.097796 316.608  L 436.992385 317.376  L 437.886974 318.912  L 438.781563 318.912  L 439.676152 318.144  L 440.570741 318.144  L 441.465331 316.608  L 442.35992 316.608  L 443.254509 318.144  L 445.043687 316.608  L 445.938277 316.608  L 446.832866 315.072  L 447.727455 314.304  L 448.622044 315.84  L 449.516633 315.072  L 450.411222 315.072  L 451.305812 315.84  L 452.200401 317.376  L 453.09499 317.376  L 453.989579 315.84  L 454.884168 316.608  L 456.673347 316.608  L 457.567936 315.84  L 458.462525 316.608  L 459.357114 315.84  L 460.251703 318.144  L 461.146293 317.376  L 462.040882 317.376  L 462.935471 318.144  L 463.83006 318.144  L 464.724649 316.608  L 465.619238 316.608  L 466.513828 315.072  L 467.408417 316.608  L 468.303006 317.376  L 469.197595 315.84  L 470.092184 317.376  L 470.986774 315.84  L 471.881363 317.376  L 472.775952 315.84  L 473.670541 315.84  L 474.56513 315.072  L 476.354309 316.608  L 477.248898 315.84  L 479.038076 315.84  L 479.932665 317.376  L 480.827255 316.608  L 481.721844 316.608  L 482.616433 315.84  L 483.511022 318.144  L 484.405611 316.608  L 485.3002 317.376  L 486.19479 315.84  L 487.983968 317.376  L 488.878557 316.608  L 489.773146 316.608  L 490.667735 317.376  L 491.562325 317.376  L 492.456914 316.608  L 493.351503 317.376  L 494.246092 318.912  L 495.140681 317.376  L 496.035271 317.376  L 496.92986 318.144  L 498.719038 318.144  L 499.613627 318.912  L 500.508216 318.144  L 502.297395 319.68  L 503.191984 319.68  L 504.086573 317.376  L 504.981162 319.68  L 505.875752 318.144  L 507.66493 319.68  L 509.454108 318.144  L 510.348697 319.68  L 511.243287 320.448  L 512.137876 319.68  L 513.032465 319.68  L 514.821643 318.144  L 515.716232 318.912  L 516.610822 318.144  L 517.505411 318.912  L 518.4 318.912  L 518.4 318.912  "
           style="fill:none;opacity:0.6;stroke:#ff0000;stroke-linecap:square;"
           id="path15" />
      </g>
      <g
         id="patch_3">
        <path
           d="M 72 388.8  L 518.4 388.8  "
           style="fill:none;stroke:#000000;stroke-linecap:square;stroke-linejoin:miter;"
           id="path18" />
      </g>
      <g
         id="patch_4">
        <path
           d="M 72 388.8  L 72 43.2  "
           style="fill:none;stroke:#000000;stroke-linecap:square;stroke-linejoin:miter;"
           id="path21" />
      </g>
      <g
         id="matplotlib.axis_1">
        <g
           id="xtick_2">
          <g
             id="line2d_4">
            <g
               id="g38">
              <path
                 style="stroke:#000000;stroke-width:0.5;stroke-linecap:butt;stroke-linejoin:round;stroke-miterlimit:100000"
                 id="use36"
                 d="m 161.28,388.79999 v -4"
                 inkscape:connector-curvature="0" />
            </g>
          </g>
          <g
             id="text_2"
             transform="translate(0,9)"
             style="stroke-linecap:butt;stroke-linejoin:round;stroke-miterlimit:100000">
            <text
               style="font-style:normal;font-weight:400;font-size:16px;font-family:'Bitstream Vera Sans';text-anchor:middle;stroke-linecap:butt;stroke-linejoin:round;stroke-miterlimit:100000"
               x="161.28"
               y="404.95749"
               id="text41">100</text>
          </g>
        </g>
        <g
           id="xtick_4">
          <g
             id="line2d_6">
            <g
               id="g56">
              <path
                 style="stroke:#000000;stroke-width:0.5;stroke-linecap:butt;stroke-linejoin:round;stroke-miterlimit:100000"
                 id="use54"
                 d="m 339.84,388.79999 v -4"
                 inkscape:connector-curvature="0" />
            </g>
          </g>
          <g
             id="text_4"
             transform="translate(0,9)"
             style="stroke-linecap:butt;stroke-linejoin:round;stroke-miterlimit:100000">
            <text
               style="font-style:normal;font-weight:400;font-size:16px;font-family:'Bitstream Vera Sans';text-anchor:middle;stroke-linecap:butt;stroke-linejoin:round;stroke-miterlimit:100000"
               x="339.84"
               y="404.95749"
               id="text59">300</text>
          </g>
        </g>
        <g
           id="xtick_6">
          <g
             id="line2d_8">
            <g
               id="g74">
              <path
                 style="stroke:#000000;stroke-width:0.5;stroke-linecap:butt;stroke-linejoin:round;stroke-miterlimit:100000"
                 id="use72"
                 d="m 518.40002,388.79999 v -4"
                 inkscape:connector-curvature="0" />
            </g>
          </g>
          <g
             id="text_6"
             transform="translate(0,9)"
             style="stroke-linecap:butt;stroke-linejoin:round;stroke-miterlimit:100000">
            <text
               style="font-style:normal;font-weight:400;font-size:16px;font-family:'Bitstream Vera Sans';text-anchor:middle;stroke-linecap:butt;stroke-linejoin:round;stroke-miterlimit:100000"
               x="518.40002"
               y="404.95749"
               id="text77">500</text>
          </g>
        </g>
        <g
           id="text_7"
           transform="translate(0,10.5)"
           style="stroke-linecap:butt;stroke-linejoin:round;stroke-miterlimit:100000">
          <text
             style="font-style:normal;font-weight:400;font-size:16px;font-family:'Bitstream Vera Sans';text-anchor:middle;stroke-linecap:butt;stroke-linejoin:round;stroke-miterlimit:100000"
             x="295.20001"
             y="425.4425"
             id="text81">$\text{Number\ of\ trees}$</text>
        </g>
      </g>
      <g
         id="matplotlib.axis_2">
        <g
           id="ytick_2">
          <g
             id="line2d_10">
            <g
               id="g99">
              <path
                 style="stroke:#000000;stroke-width:0.5;stroke-linecap:butt;stroke-linejoin:round;stroke-miterlimit:100000"
                 id="use97"
                 d="m 72,350.39999 h 4"
                 inkscape:connector-curvature="0" />
            </g>
          </g>
          <g
             id="text_9"
             transform="translate(-1.5)"
             style="stroke-linecap:butt;stroke-linejoin:round;stroke-miterlimit:100000">
            <text
               style="font-style:normal;font-weight:400;font-size:16px;font-family:'Bitstream Vera Sans';text-anchor:end;stroke-linecap:butt;stroke-linejoin:round;stroke-miterlimit:100000"
               x="68"
               y="354.815"
               id="text102">0.06</text>
          </g>
        </g>
        <g
           id="ytick_4">
          <g
             id="line2d_12">
            <g
               id="g117">
              <path
                 style="stroke:#000000;stroke-width:0.5;stroke-linecap:butt;stroke-linejoin:round;stroke-miterlimit:100000"
                 id="use115"
                 d="m 72,273.60001 h 4"
                 inkscape:connector-curvature="0" />
            </g>
          </g>
          <g
             id="text_11"
             transform="translate(-1.5)"
             style="stroke-linecap:butt;stroke-linejoin:round;stroke-miterlimit:100000">
            <text
               style="font-style:normal;font-weight:400;font-size:16px;font-family:'Bitstream Vera Sans';text-anchor:end;stroke-linecap:butt;stroke-linejoin:round;stroke-miterlimit:100000"
               x="68"
               y="278.01501"
               id="text120">0.10</text>
          </g>
        </g>
        <g
           id="ytick_6">
          <g
             id="line2d_14">
            <g
               id="g135">
              <path
                 style="stroke:#000000;stroke-width:0.5;stroke-linecap:butt;stroke-linejoin:round;stroke-miterlimit:100000"
                 id="use133"
                 d="m 72,196.8 h 4"
                 inkscape:connector-curvature="0" />
            </g>
          </g>
          <g
             id="text_13"
             transform="translate(-1.5)"
             style="stroke-linecap:butt;stroke-linejoin:round;stroke-miterlimit:100000">
            <text
               style="font-style:normal;font-weight:400;font-size:16px;font-family:'Bitstream Vera Sans';text-anchor:end;stroke-linecap:butt;stroke-linejoin:round;stroke-miterlimit:100000"
               x="68"
               y="201.215"
               id="text138">0.14</text>
          </g>
        </g>
        <g
           id="ytick_8">
          <g
             id="line2d_16">
            <g
               id="g153">
              <path
                 style="stroke:#000000;stroke-width:0.5;stroke-linecap:butt;stroke-linejoin:round;stroke-miterlimit:100000"
                 id="use151"
                 d="m 72,120 h 4"
                 inkscape:connector-curvature="0" />
            </g>
          </g>
          <g
             id="text_15"
             transform="translate(-1.5)"
             style="stroke-linecap:butt;stroke-linejoin:round;stroke-miterlimit:100000">
            <text
               style="font-style:normal;font-weight:400;font-size:16px;font-family:'Bitstream Vera Sans';text-anchor:end;stroke-linecap:butt;stroke-linejoin:round;stroke-miterlimit:100000"
               x="68"
               y="124.415"
               id="text156">0.18</text>
          </g>
        </g>
        <g
           id="ytick_10">
          <g
             id="line2d_18">
            <g
               id="g171">
              <path
                 style="stroke:#000000;stroke-width:0.5;stroke-linecap:butt;stroke-linejoin:round;stroke-miterlimit:100000"
                 id="use169"
                 d="m 72,43.200001 h 4"
                 inkscape:connector-curvature="0" />
            </g>
          </g>
          <g
             id="text_17"
             transform="translate(-1.5)"
             style="stroke-linecap:butt;stroke-linejoin:round;stroke-miterlimit:100000">
            <text
               style="font-style:normal;font-weight:400;font-size:16px;font-family:'Bitstream Vera Sans';text-anchor:end;stroke-linecap:butt;stroke-linejoin:round;stroke-miterlimit:100000"
               x="68"
               y="47.615002"
               id="text174">0.22</text>
          </g>
        </g>
        <g
           id="text_18"
           transform="translate(-6)"
           style="stroke-linecap:butt;stroke-linejoin:round;stroke-miterlimit:100000">
          <text
             style="font-style:normal;font-weight:400;font-size:16px;font-family:'Bitstream Vera Sans';text-anchor:middle;stroke-linecap:butt;stroke-linejoin:round;stroke-miterlimit:100000"
             transform="rotate(-90,24.0475,216)"
             x="24.047501"
             y="216"
             id="text178">$\text{OOB error}$</text>
        </g>
      </g>
      <g
         id="legend_1">
        <g
           id="line2d_19"
           transform="translate(0,31.5)"
           style="stroke-linecap:butt;stroke-linejoin:round;stroke-miterlimit:100000">
          <path
             d="m 213.537,68.349 h 26.88"
             style="opacity:0.6;fill:none;stroke:#0000ff;stroke-linecap:square;stroke-linejoin:round;stroke-miterlimit:100000"
             id="path182"
             inkscape:connector-curvature="0" />
        </g>
        <g
           id="line2d_20" />
        <g
           id="text_19"
           transform="translate(0,-6)"
           style="stroke-linecap:butt;stroke-linejoin:round;stroke-miterlimit:100000">
          <text
             style="font-style:normal;font-weight:400;font-size:19.20000076px;font-family:'Bitstream Vera Sans';text-anchor:start;stroke-linecap:butt;stroke-linejoin:round;stroke-miterlimit:100000"
             x="261.53699"
             y="112.569"
             id="text186">$\text{Random Forest}$</text>
        </g>
        <g
           id="line2d_21"
           transform="translate(0,-16.5)"
           style="stroke-linecap:butt;stroke-linejoin:round;stroke-miterlimit:100000">
          <path
             d="m 213.537,87.891 h 26.88"
             style="opacity:0.6;fill:none;stroke:#ff0000;stroke-linecap:square;stroke-linejoin:round;stroke-miterlimit:100000"
             id="path189"
             inkscape:connector-curvature="0" />
        </g>
        <g
           id="line2d_22" />
        <g
           id="text_20"
           transform="translate(0,-16.5)"
           style="stroke-linecap:butt;stroke-linejoin:round;stroke-miterlimit:100000">
          <text
             style="font-style:normal;font-weight:400;font-size:19.20000076px;font-family:'Bitstream Vera Sans';text-anchor:start;stroke-linecap:butt;stroke-linejoin:round;stroke-miterlimit:100000"
             x="261.53699"
             y="94.611"
             id="text193">$\text{Bagging}$</text>
        </g>
      </g>
    </g>
  </g>
  <defs
     id="defs202">
    <clipPath
       id="pb2434df2c7">
      <rect
         height="345.6"
         width="446.4"
         x="72.0"
         y="43.2"
         id="rect199" />
    </clipPath>
  </defs>
</svg>
