<?xml version="1.0" encoding="UTF-8" standalone="no"?>
<!-- Created with matplotlib (http://matplotlib.org/) -->

<svg
   xmlns:dc="http://purl.org/dc/elements/1.1/"
   xmlns:cc="http://creativecommons.org/ns#"
   xmlns:rdf="http://www.w3.org/1999/02/22-rdf-syntax-ns#"
   xmlns:svg="http://www.w3.org/2000/svg"
   xmlns="http://www.w3.org/2000/svg"
   xmlns:xlink="http://www.w3.org/1999/xlink"
   xmlns:sodipodi="http://sodipodi.sourceforge.net/DTD/sodipodi-0.dtd"
   xmlns:inkscape="http://www.inkscape.org/namespaces/inkscape"
   height="432pt"
   version="1.1"
   viewBox="0 0 576 432"
   width="576pt"
   id="svg194"
   sodipodi:docname="random_forest_cv.svg"
   inkscape:version="0.92.2 (5c3e80d, 2017-08-06)">
  <metadata
     id="metadata198">
    <rdf:RDF>
      <cc:Work
         rdf:about="">
        <dc:format>image/svg+xml</dc:format>
        <dc:type
           rdf:resource="http://purl.org/dc/dcmitype/StillImage" />
      </cc:Work>
    </rdf:RDF>
  </metadata>
  <sodipodi:namedview
     pagecolor="#ffffff"
     bordercolor="#666666"
     borderopacity="1"
     objecttolerance="10"
     gridtolerance="10"
     guidetolerance="10"
     inkscape:pageopacity="0"
     inkscape:pageshadow="2"
     inkscape:window-width="1920"
     inkscape:window-height="951"
     id="namedview196"
     showgrid="false"
     inkscape:zoom="1.24"
     inkscape:cx="222.75233"
     inkscape:cy="286.3871"
     inkscape:window-x="0"
     inkscape:window-y="27"
     inkscape:window-maximized="1"
     inkscape:current-layer="xtick_2" />
  <defs
     id="defs4">
    <style
       type="text/css"
       id="style2">
*{stroke-linecap:butt;stroke-linejoin:round;stroke-miterlimit:100000;}
  </style>
  </defs>
  <g
     id="figure_1">
    <g
       id="patch_1">
      <path
         d="M 0 432  L 576 432  L 576 0  L 0 0  z "
         style="fill:#ffffff;"
         id="path6" />
    </g>
    <g
       id="axes_1">
      <g
         id="patch_2">
        <path
           d="M 72 388.8  L 518.4 388.8  L 518.4 43.2  L 72 43.2  z "
           style="fill:#ffffff;"
           id="path9" />
      </g>
      <g
         id="line2d_1">
        <path
           clip-path="url(#p16876467fe)"
           d="M 72 82.014687  L 72.894589 63.019355  L 73.789178 64.004313  L 74.683768 86.579827  L 75.578357 98.213738  L 76.472946 117.857511  L 77.367535 141.444156  L 78.262124 156.561618  L 79.156713 154.862128  L 80.051303 180.636496  L 80.945892 181.126847  L 81.840481 192.749758  L 82.73507 209.137906  L 83.629659 214.162275  L 84.524248 220.411849  L 85.418838 227.52  L 87.208016 239.04  L 88.102605 252.096  L 88.997194 245.952  L 89.891784 255.936  L 90.786373 262.08  L 92.575551 271.296  L 93.47014 272.832  L 94.364729 281.28  L 95.259319 286.656  L 97.048497 294.336  L 97.943086 289.728  L 98.837675 300.48  L 99.732265 302.784  L 100.626854 296.64  L 101.521443 299.712  L 103.310621 314.304  L 104.20521 306.624  L 105.0998 310.464  L 105.994389 306.624  L 106.888978 315.84  L 107.783567 314.304  L 108.678156 315.072  L 109.572745 323.52  L 110.467335 321.216  L 111.361924 319.68  L 112.256513 320.448  L 113.151102 318.912  L 114.045691 316.608  L 114.940281 321.216  L 116.729459 321.216  L 117.624048 318.912  L 118.518637 320.448  L 119.413226 319.68  L 121.202405 331.2  L 122.096994 327.36  L 122.991583 327.36  L 124.780762 333.504  L 125.675351 334.272  L 126.56994 332.736  L 127.464529 338.112  L 128.359118 334.272  L 129.253707 337.344  L 130.148297 338.88  L 131.042886 337.344  L 131.937475 336.576  L 132.832064 340.416  L 134.621242 335.808  L 135.515832 341.184  L 136.410421 341.184  L 137.30501 338.88  L 138.199599 338.88  L 139.094188 340.416  L 139.988778 338.112  L 140.883367 343.488  L 141.777956 341.184  L 142.672545 341.952  L 143.567134 338.88  L 144.461723 340.416  L 145.356313 342.72  L 146.250902 343.488  L 147.145491 341.184  L 148.04008 342.72  L 148.934669 345.024  L 149.829259 344.256  L 150.723848 341.184  L 151.618437 344.256  L 152.513026 345.024  L 153.407615 342.72  L 154.302204 344.256  L 155.196794 343.488  L 156.985972 346.56  L 157.880561 344.256  L 158.77515 344.256  L 159.669739 347.328  L 160.564329 345.024  L 161.458918 348.096  L 162.353507 343.488  L 163.248096 343.488  L 164.142685 345.792  L 165.037275 342.72  L 165.931864 341.952  L 166.826453 341.952  L 167.721042 340.416  L 168.615631 341.952  L 169.51022 344.256  L 170.40481 338.88  L 171.299399 342.72  L 172.193988 343.488  L 173.088577 342.72  L 173.983166 341.184  L 174.877756 344.256  L 176.666934 342.72  L 177.561523 345.792  L 178.456112 341.952  L 179.350701 346.56  L 180.245291 346.56  L 181.13988 345.792  L 182.034469 345.792  L 182.929058 348.096  L 183.823647 344.256  L 184.718236 348.864  L 185.612826 343.488  L 186.507415 348.864  L 187.402004 348.096  L 188.296593 348.864  L 189.191182 348.864  L 190.980361 342.72  L 191.87495 341.952  L 192.769539 345.024  L 193.664128 345.024  L 194.558717 347.328  L 195.453307 345.792  L 196.347896 345.792  L 197.242485 347.328  L 198.137074 345.792  L 199.926253 344.256  L 200.820842 345.792  L 201.715431 346.56  L 202.61002 345.792  L 203.504609 347.328  L 204.399198 345.024  L 205.293788 345.792  L 206.188377 347.328  L 207.082966 345.792  L 207.977555 346.56  L 208.872144 343.488  L 209.766733 347.328  L 210.661323 346.56  L 211.555912 348.096  L 214.239679 345.792  L 215.134269 345.792  L 216.028858 346.56  L 217.818036 346.56  L 218.712625 347.328  L 219.607214 345.792  L 220.501804 348.864  L 221.396393 349.632  L 222.290982 347.328  L 223.185571 347.328  L 224.08016 351.936  L 224.974749 350.4  L 225.869339 349.632  L 226.763928 349.632  L 227.658517 348.096  L 228.553106 350.4  L 229.447695 348.096  L 230.342285 347.328  L 231.236874 348.864  L 232.131463 348.864  L 233.026052 348.096  L 233.920641 348.864  L 234.81523 348.096  L 235.70982 346.56  L 236.604409 345.792  L 237.498998 345.792  L 239.288176 347.328  L 240.182766 346.56  L 241.077355 347.328  L 241.971944 348.864  L 242.866533 345.792  L 243.761122 344.256  L 244.655711 348.096  L 245.550301 345.792  L 246.44489 346.56  L 248.234068 346.56  L 249.128657 347.328  L 250.917836 351.936  L 251.812425 351.936  L 252.707014 350.4  L 253.601603 352.704  L 254.496192 348.096  L 255.390782 348.096  L 256.285371 350.4  L 257.17996 348.864  L 258.074549 348.096  L 258.969138 348.096  L 259.863727 347.328  L 260.758317 349.632  L 261.652906 346.56  L 262.547495 345.024  L 263.442084 345.792  L 264.336673 345.024  L 265.231263 346.56  L 266.125852 341.184  L 267.91503 345.792  L 268.809619 345.024  L 269.704208 345.024  L 271.493387 346.56  L 272.387976 345.024  L 275.071743 347.328  L 275.966333 347.328  L 276.860922 348.096  L 277.755511 347.328  L 278.6501 347.328  L 279.544689 345.792  L 280.439279 347.328  L 281.333868 344.256  L 283.123046 345.792  L 284.017635 345.024  L 284.912224 346.56  L 285.806814 347.328  L 286.701403 345.792  L 287.595992 346.56  L 288.490581 345.792  L 289.38517 347.328  L 291.174349 345.792  L 292.068938 348.096  L 292.963527 348.864  L 293.858116 347.328  L 294.752705 347.328  L 295.647295 346.56  L 297.436473 348.096  L 298.331062 346.56  L 299.225651 345.792  L 300.12024 347.328  L 301.01483 345.024  L 301.909419 347.328  L 302.804008 348.096  L 303.698597 348.096  L 305.487776 346.56  L 306.382365 346.56  L 308.171543 345.024  L 309.066132 345.792  L 309.960721 348.864  L 310.855311 348.096  L 311.7499 346.56  L 313.539078 346.56  L 314.433667 344.256  L 316.222846 345.792  L 317.117435 347.328  L 318.012024 347.328  L 318.906613 345.792  L 319.801202 345.792  L 320.695792 344.256  L 322.48497 347.328  L 323.379559 346.56  L 324.274148 346.56  L 325.168737 348.096  L 326.063327 345.792  L 326.957916 345.792  L 328.747094 347.328  L 329.641683 347.328  L 330.536273 345.792  L 331.430862 345.792  L 332.325451 345.024  L 333.22004 346.56  L 334.114629 346.56  L 335.009218 347.328  L 335.903808 346.56  L 336.798397 348.096  L 337.692986 346.56  L 338.587575 348.864  L 339.482164 347.328  L 340.376754 346.56  L 343.95511 346.56  L 344.849699 345.792  L 345.744289 345.792  L 346.638878 347.328  L 347.533467 345.792  L 349.322645 344.256  L 350.217234 345.792  L 351.111824 343.488  L 352.006413 345.024  L 352.901002 345.792  L 354.69018 345.792  L 355.58477 345.024  L 356.479359 345.024  L 357.373948 346.56  L 359.163126 346.56  L 360.057715 348.096  L 360.952305 347.328  L 361.846894 345.792  L 362.741483 348.096  L 363.636072 347.328  L 364.530661 345.792  L 369.003607 345.792  L 370.792786 347.328  L 371.687375 346.56  L 372.581964 346.56  L 374.371142 348.096  L 375.265731 348.096  L 376.160321 348.864  L 377.949499 348.864  L 378.844088 348.096  L 379.738677 348.864  L 381.527856 348.864  L 382.422445 349.632  L 385.106212 349.632  L 386.000802 348.864  L 386.895391 350.4  L 387.78998 349.632  L 388.684569 349.632  L 389.579158 347.328  L 390.473747 347.328  L 391.368337 348.864  L 392.262926 348.864  L 393.157515 350.4  L 394.946693 347.328  L 395.841283 346.56  L 396.735872 348.096  L 397.630461 348.096  L 398.52505 346.56  L 399.419639 347.328  L 400.314228 345.024  L 401.208818 345.792  L 402.103407 345.792  L 402.997996 347.328  L 403.892585 345.792  L 404.787174 346.56  L 405.681764 346.56  L 406.576353 345.024  L 409.26012 347.328  L 411.943888 347.328  L 412.838477 348.096  L 413.733066 346.56  L 414.627655 346.56  L 415.522244 347.328  L 416.416834 346.56  L 418.206012 346.56  L 419.100601 347.328  L 419.99519 346.56  L 420.88978 345.024  L 421.784369 347.328  L 422.678958 347.328  L 423.573547 348.096  L 424.468136 348.096  L 425.362725 346.56  L 426.257315 345.792  L 427.151904 346.56  L 428.046493 345.792  L 428.941082 346.56  L 429.835671 348.096  L 430.730261 346.56  L 431.62485 346.56  L 432.519439 347.328  L 433.414028 346.56  L 435.203206 346.56  L 436.992385 345.024  L 437.886974 345.792  L 438.781563 343.488  L 439.676152 345.792  L 440.570741 345.792  L 441.465331 345.024  L 442.35992 345.024  L 443.254509 345.792  L 444.149098 345.024  L 447.727455 345.024  L 448.622044 345.792  L 449.516633 345.024  L 450.411222 345.024  L 451.305812 343.488  L 452.200401 344.256  L 453.09499 343.488  L 453.989579 344.256  L 454.884168 343.488  L 455.778758 344.256  L 456.673347 344.256  L 457.567936 345.024  L 458.462525 344.256  L 459.357114 346.56  L 460.251703 346.56  L 461.146293 345.792  L 462.935471 345.792  L 465.619238 348.096  L 466.513828 346.56  L 467.408417 346.56  L 468.303006 348.096  L 470.986774 348.096  L 471.881363 348.864  L 472.775952 348.096  L 473.670541 348.864  L 474.56513 348.096  L 476.354309 348.096  L 477.248898 347.328  L 478.143487 347.328  L 479.038076 348.096  L 479.932665 349.632  L 480.827255 348.864  L 482.616433 348.864  L 483.511022 349.632  L 484.405611 348.096  L 485.3002 349.632  L 486.19479 348.864  L 487.983968 348.864  L 488.878557 349.632  L 489.773146 349.632  L 490.667735 350.4  L 491.562325 349.632  L 492.456914 349.632  L 493.351503 348.096  L 494.246092 348.864  L 495.140681 350.4  L 499.613627 350.4  L 500.508216 349.632  L 501.402806 350.4  L 504.086573 350.4  L 504.981162 349.632  L 505.875752 350.4  L 506.770341 349.632  L 507.66493 349.632  L 508.559519 348.096  L 510.348697 349.632  L 511.243287 351.168  L 512.137876 348.864  L 513.032465 348.096  L 513.927054 348.096  L 515.716232 349.632  L 516.610822 348.864  L 518.4 350.4  L 518.4 350.4  "
           style="fill:none;stroke:#000000;stroke-linecap:square;"
           id="path12" />
      </g>
      <g
         id="patch_3">
        <path
           d="M 72 388.8  L 518.4 388.8  "
           style="fill:none;stroke:#000000;stroke-linecap:square;stroke-linejoin:miter;"
           id="path15" />
      </g>
      <g
         id="patch_4">
        <path
           d="M 72 388.8  L 72 43.2  "
           style="fill:none;stroke:#000000;stroke-linecap:square;stroke-linejoin:miter;"
           id="path18" />
      </g>
      <g
         id="matplotlib.axis_1">
        <g
           id="xtick_2">
          <g
             id="line2d_3">
            <g
               id="g35">
              <path
                 style="stroke:#000000;stroke-width:0.5;stroke-linecap:butt;stroke-linejoin:round;stroke-miterlimit:100000"
                 id="use33"
                 d="m 161.28,388.79999 v -4"
                 inkscape:connector-curvature="0" />
            </g>
          </g>
          <g
             id="text_2"
             transform="translate(0,6)"
             style="stroke-linecap:butt;stroke-linejoin:round;stroke-miterlimit:100000">
            <text
               style="font-style:normal;font-weight:400;font-size:16px;font-family:'Bitstream Vera Sans';text-anchor:middle;stroke-linecap:butt;stroke-linejoin:round;stroke-miterlimit:100000"
               x="161.28"
               y="404.95749"
               id="text38">100</text>
          </g>
        </g>
        <g
           id="xtick_4">
          <g
             id="line2d_5">
            <g
               id="g53">
              <path
                 style="stroke:#000000;stroke-width:0.5;stroke-linecap:butt;stroke-linejoin:round;stroke-miterlimit:100000"
                 id="use51"
                 d="m 339.84,388.79999 v -4"
                 inkscape:connector-curvature="0" />
            </g>
          </g>
          <g
             id="text_4"
             transform="translate(0,6)"
             style="stroke-linecap:butt;stroke-linejoin:round;stroke-miterlimit:100000">
            <text
               style="font-style:normal;font-weight:400;font-size:16px;font-family:'Bitstream Vera Sans';text-anchor:middle;stroke-linecap:butt;stroke-linejoin:round;stroke-miterlimit:100000"
               x="339.84"
               y="404.95749"
               id="text56">300</text>
          </g>
        </g>
        <g
           id="xtick_6">
          <g
             id="line2d_7">
            <g
               id="g71">
              <path
                 style="stroke:#000000;stroke-width:0.5;stroke-linecap:butt;stroke-linejoin:round;stroke-miterlimit:100000"
                 id="use69"
                 d="m 518.40002,388.79999 v -4"
                 inkscape:connector-curvature="0" />
            </g>
          </g>
          <g
             id="text_6"
             transform="translate(0,3)"
             style="stroke-linecap:butt;stroke-linejoin:round;stroke-miterlimit:100000">
            <text
               style="font-style:normal;font-weight:400;font-size:16px;font-family:'Bitstream Vera Sans';text-anchor:middle;stroke-linecap:butt;stroke-linejoin:round;stroke-miterlimit:100000"
               x="518.40002"
               y="407.95749"
               id="text74">500</text>
          </g>
        </g>
        <g
           id="text_7"
           transform="translate(0,6)"
           style="stroke-linecap:butt;stroke-linejoin:round;stroke-miterlimit:100000">
          <text
             style="font-style:normal;font-weight:400;font-size:16px;font-family:'Bitstream Vera Sans';text-anchor:middle;stroke-linecap:butt;stroke-linejoin:round;stroke-miterlimit:100000"
             x="295.20001"
             y="425.4425"
             id="text78">$\text{Number\ of\ Trees}$</text>
        </g>
      </g>
      <g
         id="matplotlib.axis_2">
        <g
           id="ytick_1">
          <g
             id="line2d_8">
            <defs
               id="defs83">
              <path
                 d="M 0 0  L 4 0  "
                 id="m293a461c7c"
                 style="stroke:#000000;stroke-width:0.5;" />
            </defs>
            <g
               id="g87">
              <use
                 style="stroke:#000000;stroke-width:0.5;"
                 x="72.0"
                 xlink:href="#m293a461c7c"
                 y="388.8"
                 id="use85" />
            </g>
          </g>
          <g
             id="text_8" />
        </g>
        <g
           id="ytick_2">
          <g
             id="line2d_9">
            <g
               id="g96">
              <use
                 style="stroke:#000000;stroke-width:0.5;"
                 x="72.0"
                 xlink:href="#m293a461c7c"
                 y="350.4"
                 id="use94" />
            </g>
          </g>
          <g
             id="text_9"
             transform="translate(-1.5)"
             style="stroke-linecap:butt;stroke-linejoin:round;stroke-miterlimit:100000">
            <text
               style="font-style:normal;font-weight:400;font-size:16px;font-family:'Bitstream Vera Sans';text-anchor:end;stroke-linecap:butt;stroke-linejoin:round;stroke-miterlimit:100000"
               x="68"
               y="354.815"
               id="text99">0.06</text>
          </g>
        </g>
        <g
           id="ytick_4">
          <g
             id="line2d_11">
            <g
               id="g114">
              <use
                 style="stroke:#000000;stroke-width:0.5;"
                 x="72.0"
                 xlink:href="#m293a461c7c"
                 y="273.6"
                 id="use112" />
            </g>
          </g>
          <g
             id="text_11"
             transform="translate(-1.5)"
             style="stroke-linecap:butt;stroke-linejoin:round;stroke-miterlimit:100000">
            <text
               style="font-style:normal;font-weight:400;font-size:16px;font-family:'Bitstream Vera Sans';text-anchor:end;stroke-linecap:butt;stroke-linejoin:round;stroke-miterlimit:100000"
               x="68"
               y="278.01501"
               id="text117">0.10</text>
          </g>
        </g>
        <g
           id="ytick_6">
          <g
             id="line2d_13">
            <g
               id="g132">
              <use
                 style="stroke:#000000;stroke-width:0.5;"
                 x="72.0"
                 xlink:href="#m293a461c7c"
                 y="196.8"
                 id="use130" />
            </g>
          </g>
          <g
             id="text_13"
             transform="translate(-1.5)"
             style="stroke-linecap:butt;stroke-linejoin:round;stroke-miterlimit:100000">
            <text
               style="font-style:normal;font-weight:400;font-size:16px;font-family:'Bitstream Vera Sans';text-anchor:end;stroke-linecap:butt;stroke-linejoin:round;stroke-miterlimit:100000"
               x="68"
               y="201.215"
               id="text135">0.14</text>
          </g>
        </g>
        <g
           id="ytick_7" />
        <g
           id="ytick_9">
          <g
             id="line2d_16">
            <g
               id="g159">
              <use
                 style="stroke:#000000;stroke-width:0.5;"
                 x="72.0"
                 xlink:href="#m293a461c7c"
                 y="81.6"
                 id="use157" />
            </g>
          </g>
          <g
             id="text_16"
             transform="translate(-1.5)"
             style="stroke-linecap:butt;stroke-linejoin:round;stroke-miterlimit:100000">
            <text
               style="font-style:normal;font-weight:400;font-size:16px;font-family:'Bitstream Vera Sans';text-anchor:end;stroke-linecap:butt;stroke-linejoin:round;stroke-miterlimit:100000"
               x="68"
               y="86.014999"
               id="text162">0.20</text>
          </g>
        </g>
        <g
           id="ytick_10">
          <g
             id="line2d_17">
            <g
               id="g168">
              <use
                 style="stroke:#000000;stroke-width:0.5;"
                 x="72.0"
                 xlink:href="#m293a461c7c"
                 y="43.2"
                 id="use166" />
            </g>
          </g>
          <g
             id="text_17" />
        </g>
        <g
           id="text_18">
          <text
             style="font-style:normal;font-weight:400;font-size:16px;font-family:'Bitstream Vera Sans';text-anchor:middle;stroke-linecap:butt;stroke-linejoin:round;stroke-miterlimit:100000"
             transform="rotate(-90)"
             x="-216"
             y="18.047501"
             id="text175">$\text{OOB Error}$</text>
        </g>
      </g>
      <g
         id="legend_1">
        <g
           id="line2d_18">
          <path
             d="M 213.537 68.349  L 240.417 68.349  "
             style="fill:none;stroke:#000000;stroke-linecap:square;"
             id="path179" />
        </g>
        <g
           id="line2d_19" />
        <g
           id="text_19">
          <text
             style="font-family:Bitstream Vera Sans;font-size:19.2px;font-style:normal;font-weight:400;text-anchor:start;"
             transform="rotate(-0.000000, 261.537000, 75.069000)"
             x="261.537"
             y="75.069"
             id="text183">$\text{Random Forest}$</text>
        </g>
      </g>
    </g>
  </g>
  <defs
     id="defs192">
    <clipPath
       id="p16876467fe">
      <rect
         height="345.6"
         width="446.4"
         x="72.0"
         y="43.2"
         id="rect189" />
    </clipPath>
  </defs>
</svg>
