<?xml version="1.0" encoding="UTF-8" standalone="no"?>
<!-- Created with matplotlib (http://matplotlib.org/) -->

<svg
   xmlns:dc="http://purl.org/dc/elements/1.1/"
   xmlns:cc="http://creativecommons.org/ns#"
   xmlns:rdf="http://www.w3.org/1999/02/22-rdf-syntax-ns#"
   xmlns:svg="http://www.w3.org/2000/svg"
   xmlns="http://www.w3.org/2000/svg"
   xmlns:xlink="http://www.w3.org/1999/xlink"
   xmlns:sodipodi="http://sodipodi.sourceforge.net/DTD/sodipodi-0.dtd"
   xmlns:inkscape="http://www.inkscape.org/namespaces/inkscape"
   height="432pt"
   version="1.1"
   viewBox="0 0 576 432"
   width="576pt"
   id="svg187"
   sodipodi:docname="alpha.svg"
   inkscape:version="0.92.2 (5c3e80d, 2017-08-06)">
  <metadata
     id="metadata191">
    <rdf:RDF>
      <cc:Work
         rdf:about="">
        <dc:format>image/svg+xml</dc:format>
        <dc:type
           rdf:resource="http://purl.org/dc/dcmitype/StillImage" />
      </cc:Work>
    </rdf:RDF>
  </metadata>
  <sodipodi:namedview
     pagecolor="#ffffff"
     bordercolor="#666666"
     borderopacity="1"
     objecttolerance="10"
     gridtolerance="10"
     guidetolerance="10"
     inkscape:pageopacity="0"
     inkscape:pageshadow="2"
     inkscape:window-width="1920"
     inkscape:window-height="951"
     id="namedview189"
     showgrid="false"
     inkscape:zoom="1.1588694"
     inkscape:cx="409.74102"
     inkscape:cy="248.7267"
     inkscape:window-x="0"
     inkscape:window-y="27"
     inkscape:window-maximized="1"
     inkscape:current-layer="ytick_8" />
  <defs
     id="defs4">
    <style
       type="text/css"
       id="style2">
*{stroke-linecap:butt;stroke-linejoin:round;stroke-miterlimit:100000;}
  </style>
  </defs>
  <g
     id="figure_1">
    <g
       id="patch_1">
      <path
         d="M 0 432  L 576 432  L 576 0  L 0 0  z "
         style="fill:#ffffff;"
         id="path6" />
    </g>
    <g
       id="axes_1">
      <g
         id="patch_2">
        <path
           d="M 72 388.8  L 518.4 388.8  L 518.4 43.2  L 72 43.2  z "
           style="fill:#ffffff;"
           id="path9" />
      </g>
      <g
         id="line2d_1">
        <path
           clip-path="url(#p0763551f77)"
           d="M 72 77.32547  L 78.696 84.976156  L 85.392 92.292705  L 92.088 99.283317  L 98.784 105.955714  L 105.48 112.317174  L 112.176 118.374568  L 118.872 124.134394  L 125.568 129.60281  L 132.264 134.78567  L 138.96 139.68856  L 145.656 144.316829  L 152.352 148.675627  L 159.048 152.769939  L 165.744 156.604619  L 172.44 160.184423  L 179.136 163.514049  L 185.832 166.598164  L 192.528 169.441448  L 199.224 172.048618  L 205.92 174.424473  L 212.616 176.573921  L 219.312 178.502017  L 226.008 180.213999  L 232.704 181.715318  L 239.4 183.011678  L 246.096 184.109067  L 252.792 185.013794  L 259.488 185.732521  L 266.184 186.2723  L 272.88 186.640608  L 281.808 186.878737  L 290.736 186.846379  L 299.664 186.565428  L 308.592 186.059627  L 317.52 185.354718  L 328.68 184.236285  L 342.072 182.625484  L 359.928 180.21242  L 382.248 177.212853  L 393.408 175.921489  L 402.336 175.07807  L 411.264 174.463171  L 417.96 174.187439  L 424.656 174.099862  L 431.352 174.228068  L 438.048 174.600965  L 444.744 175.248776  L 451.44 176.203071  L 455.904 177.025751  L 460.368 178.009376  L 464.832 179.164342  L 469.296 180.501337  L 473.76 182.031339  L 478.224 183.765629  L 482.688 185.715787  L 487.152 187.893702  L 491.616 190.311575  L 496.08 192.981924  L 500.544 195.917587  L 505.008 199.131729  L 509.472 202.637844  L 513.936 206.449761  L 518.4 210.58165  L 518.4 210.58165  "
           style="fill:none;stroke:#0000ff;stroke-linecap:square;"
           id="path12" />
      </g>
      <g
         id="line2d_2">
        <path
           clip-path="url(#p0763551f77)"
           d="M 72 102.319316  L 74.232 107.644292  L 76.464 112.771762  L 80.928 122.455118  L 85.392 131.410257  L 89.856 139.676474  L 94.32 147.291526  L 98.784 154.291662  L 103.248 160.711655  L 107.712 166.58484  L 112.176 171.94314  L 116.64 176.817106  L 121.104 181.235945  L 125.568 185.227557  L 130.032 188.818566  L 134.496 192.034354  L 138.96 194.899094  L 143.424 197.435782  L 147.888 199.666273  L 152.352 201.61131  L 156.816 203.290563  L 161.28 204.722655  L 165.744 205.925202  L 170.208 206.914842  L 174.672 207.707268  L 179.136 208.317265  L 183.6 208.758739  L 190.296 209.133319  L 196.992 209.198619  L 203.688 208.991483  L 210.384 208.545153  L 217.08 207.889521  L 223.776 207.05138  L 232.704 205.690968  L 241.632 204.098074  L 252.792 201.844282  L 263.952 199.363378  L 277.344 196.168219  L 297.432 191.104237  L 333.144 182.033304  L 346.536 178.883885  L 357.696 176.494852  L 366.624 174.80058  L 375.552 173.357214  L 382.248 172.476805  L 388.944 171.802798  L 395.64 171.368669  L 402.336 171.211511  L 406.8 171.280673  L 411.264 171.504199  L 415.728 171.896083  L 420.192 172.471197  L 424.656 173.245328  L 429.12 174.235211  L 433.584 175.45856  L 438.048 176.934102  L 442.512 178.681613  L 446.976 180.721945  L 451.44 183.077067  L 455.904 185.770091  L 460.368 188.825308  L 464.832 192.268225  L 469.296 196.12559  L 473.76 200.425433  L 478.224 205.197096  L 482.688 210.471263  L 487.152 216.279998  L 491.616 222.656779  L 496.08 229.636524  L 500.544 237.255632  L 505.008 245.552012  L 509.472 254.565117  L 513.936 264.335977  L 518.4 274.907233  L 518.4 274.907233  "
           style="fill:none;stroke:#008000;stroke-linecap:square;"
           id="path15" />
      </g>
      <g
         id="line2d_3">
        <path
           clip-path="url(#p0763551f77)"
           d="M 72 265.894287  L 76.464 264.245318  L 80.928 262.387597  L 85.392 260.343938  L 92.088 256.976794  L 98.784 253.307763  L 105.48 249.399279  L 114.408 243.913262  L 125.568 236.781398  L 154.584 218.093622  L 165.744 211.243407  L 174.672 206.007073  L 183.6 201.026305  L 192.528 196.327399  L 201.456 191.928684  L 210.384 187.841497  L 219.312 184.071145  L 228.24 180.617877  L 237.168 177.477851  L 246.096 174.644103  L 255.024 172.107517  L 263.952 169.857789  L 272.88 167.884399  L 281.808 166.177577  L 290.736 164.729274  L 299.664 163.534128  L 308.592 162.590434  L 317.52 161.901111  L 326.448 161.474671  L 335.376 161.326186  L 342.072 161.410517  L 348.768 161.676366  L 355.464 162.139278  L 362.16 162.817949  L 368.856 163.734451  L 375.552 164.914466  L 382.248 166.387511  L 388.944 168.187173  L 393.408 169.586926  L 397.872 171.160919  L 402.336 172.922409  L 406.8 174.885609  L 411.264 177.065717  L 415.728 179.478944  L 420.192 182.14255  L 424.656 185.074868  L 429.12 188.295338  L 433.584 191.824537  L 438.048 195.684208  L 442.512 199.897291  L 446.976 204.487952  L 451.44 209.481617  L 455.904 214.904996  L 460.368 220.786121  L 464.832 227.154368  L 469.296 234.040495  L 473.76 241.476666  L 478.224 249.496487  L 482.688 258.135029  L 487.152 267.428866  L 491.616 277.4161  L 496.08 288.136394  L 500.544 299.631  L 505.008 311.942792  L 509.472 325.116293  L 513.936 339.197709  L 518.4 354.234956  L 518.4 354.234956  "
           style="fill:none;stroke:#ff0000;stroke-linecap:square;"
           id="path18" />
      </g>
      <g
         id="patch_3">
        <path
           d="M 72 388.8  L 518.4 388.8  "
           style="fill:none;stroke:#000000;stroke-linecap:square;stroke-linejoin:miter;"
           id="path21" />
      </g>
      <g
         id="patch_4">
        <path
           d="M 72 388.8  L 72 43.2  "
           style="fill:none;stroke:#000000;stroke-linecap:square;stroke-linejoin:miter;"
           id="path24" />
      </g>
      <g
         id="matplotlib.axis_1">
        <g
           id="xtick_1"
           transform="translate(0,4.5)"
           style="stroke-linecap:butt;stroke-linejoin:round;stroke-miterlimit:100000">
          <g
             id="line2d_4"
             style="stroke-linecap:butt;stroke-linejoin:round;stroke-miterlimit:100000">
            <defs
               id="defs28">
              <path
                 d="M 0,0 V -4"
                 id="mee9f70cf13"
                 style="stroke:#000000;stroke-width:0.5;stroke-linecap:butt;stroke-linejoin:round;stroke-miterlimit:100000"
                 inkscape:connector-curvature="0" />
            </defs>
            <g
               id="g32"
               style="stroke-linecap:butt;stroke-linejoin:round;stroke-miterlimit:100000">
              <use
                 style="stroke:#000000;stroke-width:0.5;stroke-linecap:butt;stroke-linejoin:round;stroke-miterlimit:100000"
                 x="72"
                 xlink:href="#mee9f70cf13"
                 y="388.79999"
                 id="use30"
                 width="100%"
                 height="100%" />
            </g>
          </g>
          <g
             id="text_1"
             style="stroke-linecap:butt;stroke-linejoin:round;stroke-miterlimit:100000">
            <text
               style="font-style:normal;font-weight:400;font-size:16px;font-family:'Bitstream Vera Sans';text-anchor:middle;stroke-linecap:butt;stroke-linejoin:round;stroke-miterlimit:100000"
               x="72"
               y="404.95749"
               id="text35">−1.0</text>
          </g>
        </g>
        <g
           id="xtick_2">
          <g
             id="line2d_5">
            <g
               id="g41">
              <use
                 style="stroke:#000000;stroke-width:0.5;"
                 x="183.6"
                 xlink:href="#mee9f70cf13"
                 y="388.8"
                 id="use39" />
            </g>
          </g>
          <g
             id="text_2"
             transform="translate(0,4.5)"
             style="stroke-linecap:butt;stroke-linejoin:round;stroke-miterlimit:100000">
            <text
               style="font-style:normal;font-weight:400;font-size:16px;font-family:'Bitstream Vera Sans';text-anchor:middle;stroke-linecap:butt;stroke-linejoin:round;stroke-miterlimit:100000"
               x="183.60001"
               y="404.95749"
               id="text44">−0.5</text>
          </g>
        </g>
        <g
           id="xtick_3">
          <g
             id="line2d_6">
            <g
               id="g50">
              <use
                 style="stroke:#000000;stroke-width:0.5;"
                 x="295.2"
                 xlink:href="#mee9f70cf13"
                 y="388.8"
                 id="use48" />
            </g>
          </g>
          <g
             id="text_3"
             transform="translate(0,4.5)"
             style="stroke-linecap:butt;stroke-linejoin:round;stroke-miterlimit:100000">
            <text
               style="font-style:normal;font-weight:400;font-size:16px;font-family:'Bitstream Vera Sans';text-anchor:middle;stroke-linecap:butt;stroke-linejoin:round;stroke-miterlimit:100000"
               x="295.20001"
               y="404.95749"
               id="text53">0.0</text>
          </g>
        </g>
        <g
           id="xtick_4">
          <g
             id="line2d_7">
            <g
               id="g59">
              <use
                 style="stroke:#000000;stroke-width:0.5;"
                 x="406.8"
                 xlink:href="#mee9f70cf13"
                 y="388.8"
                 id="use57" />
            </g>
          </g>
          <g
             id="text_4"
             transform="translate(0,4.5)"
             style="stroke-linecap:butt;stroke-linejoin:round;stroke-miterlimit:100000">
            <text
               style="font-style:normal;font-weight:400;font-size:16px;font-family:'Bitstream Vera Sans';text-anchor:middle;stroke-linecap:butt;stroke-linejoin:round;stroke-miterlimit:100000"
               x="406.79999"
               y="404.95749"
               id="text62">0.5</text>
          </g>
        </g>
        <g
           id="xtick_5">
          <g
             id="line2d_8">
            <g
               id="g68">
              <use
                 style="stroke:#000000;stroke-width:0.5;"
                 x="518.4"
                 xlink:href="#mee9f70cf13"
                 y="388.8"
                 id="use66" />
            </g>
          </g>
          <g
             id="text_5"
             transform="translate(0,4.5)"
             style="stroke-linecap:butt;stroke-linejoin:round;stroke-miterlimit:100000">
            <text
               style="font-style:normal;font-weight:400;font-size:16px;font-family:'Bitstream Vera Sans';text-anchor:middle;stroke-linecap:butt;stroke-linejoin:round;stroke-miterlimit:100000"
               x="518.40002"
               y="404.95749"
               id="text71">1.0</text>
          </g>
        </g>
        <g
           id="text_6">
          <text
             style="font-family:Bitstream Vera Sans;font-size:16.0px;font-style:normal;font-weight:400;text-anchor:middle;"
             transform="rotate(-0.000000, 295.200000, 425.442500)"
             x="295.2"
             y="425.4425"
             id="text75">$x$</text>
        </g>
      </g>
      <g
         id="matplotlib.axis_2">
        <g
           id="ytick_1">
          <g
             id="line2d_9">
            <defs
               id="defs80">
              <path
                 d="M 0 0  L 4 0  "
                 id="me51085bcb9"
                 style="stroke:#000000;stroke-width:0.5;" />
            </defs>
            <g
               id="g84">
              <use
                 style="stroke:#000000;stroke-width:0.5;"
                 x="72.0"
                 xlink:href="#me51085bcb9"
                 y="388.8"
                 id="use82" />
            </g>
          </g>
        </g>
        <g
           id="ytick_2">
          <g
             id="line2d_10">
            <g
               id="g93">
              <use
                 style="stroke:#000000;stroke-width:0.5;"
                 x="72.0"
                 xlink:href="#me51085bcb9"
                 y="339.428571429"
                 id="use91" />
            </g>
          </g>
          <g
             id="text_8"
             transform="translate(-4.5)"
             style="stroke-linecap:butt;stroke-linejoin:round;stroke-miterlimit:100000">
            <text
               style="font-style:normal;font-weight:400;font-size:16px;font-family:'Bitstream Vera Sans';text-anchor:end;stroke-linecap:butt;stroke-linejoin:round;stroke-miterlimit:100000"
               x="68"
               y="343.84357"
               id="text96">−2.0</text>
          </g>
        </g>
        <g
           id="ytick_4">
          <g
             id="line2d_12">
            <g
               id="g111">
              <use
                 style="stroke:#000000;stroke-width:0.5;"
                 x="72.0"
                 xlink:href="#me51085bcb9"
                 y="240.685714286"
                 id="use109" />
            </g>
          </g>
          <g
             id="text_10"
             transform="translate(-4.5)"
             style="stroke-linecap:butt;stroke-linejoin:round;stroke-miterlimit:100000">
            <text
               style="font-style:normal;font-weight:400;font-size:16px;font-family:'Bitstream Vera Sans';text-anchor:end;stroke-linecap:butt;stroke-linejoin:round;stroke-miterlimit:100000"
               x="68"
               y="245.10071"
               id="text114">−1.0</text>
          </g>
        </g>
        <g
           id="ytick_6">
          <g
             id="line2d_14">
            <g
               id="g129">
              <use
                 style="stroke:#000000;stroke-width:0.5;"
                 x="72.0"
                 xlink:href="#me51085bcb9"
                 y="141.942857143"
                 id="use127" />
            </g>
          </g>
          <g
             id="text_12"
             transform="translate(-4.5)"
             style="stroke-linecap:butt;stroke-linejoin:round;stroke-miterlimit:100000">
            <text
               style="font-style:normal;font-weight:400;font-size:16px;font-family:'Bitstream Vera Sans';text-anchor:end;stroke-linecap:butt;stroke-linejoin:round;stroke-miterlimit:100000"
               x="68"
               y="146.35786"
               id="text132">0.0</text>
          </g>
        </g>
        <g
           id="ytick_8">
          <g
             id="line2d_16">
            <g
               id="g147">
              <use
                 style="stroke:#000000;stroke-width:0.5;"
                 x="72.0"
                 xlink:href="#me51085bcb9"
                 y="43.2"
                 id="use145" />
            </g>
          </g>
          <g
             id="text_14"
             transform="translate(-4.5)"
             style="stroke-linecap:butt;stroke-linejoin:round;stroke-miterlimit:100000">
            <text
               style="font-style:normal;font-weight:400;font-size:16px;font-family:'Bitstream Vera Sans';text-anchor:end;stroke-linecap:butt;stroke-linejoin:round;stroke-miterlimit:100000"
               x="68"
               y="47.615002"
               id="text150">1.0</text>
          </g>
        </g>
        <g
           id="text_15">
          <text
             style="font-family:Bitstream Vera Sans;font-size:16.0px;font-style:normal;font-weight:400;text-anchor:middle;"
             transform="rotate(-90.000000, 20.375000, 216.000000)"
             x="20.375"
             y="216.0"
             id="text154">$L_{q}$</text>
        </g>
      </g>
      <g
         id="legend_1">
        <g
           id="line2d_17"
           transform="translate(0,-4.5)"
           style="stroke-linecap:butt;stroke-linejoin:round;stroke-miterlimit:100000">
          <path
             d="m 371.742,68.349 h 26.88"
             style="fill:none;stroke:#0000ff;stroke-linecap:square;stroke-linejoin:round;stroke-miterlimit:100000"
             id="path158"
             inkscape:connector-curvature="0" />
        </g>
        <g
           id="line2d_18" />
        <g
           id="text_16"
           transform="translate(0,-4.5)"
           style="stroke-linecap:butt;stroke-linejoin:round;stroke-miterlimit:100000">
          <text
             style="font-style:normal;font-weight:400;font-size:19.20000076px;font-family:'Bitstream Vera Sans';text-anchor:start;stroke-linecap:butt;stroke-linejoin:round;stroke-miterlimit:100000"
             x="419.742"
             y="75.069"
             id="text162">$L_{1}$</text>
        </g>
        <g
           id="line2d_19">
          <path
             d="M 371.742 88.425  L 398.622 88.425  "
             style="fill:none;stroke:#008000;stroke-linecap:square;"
             id="path165" />
        </g>
        <g
           id="line2d_20" />
        <g
           id="text_17">
          <text
             style="font-family:Bitstream Vera Sans;font-size:19.2px;font-style:normal;font-weight:400;text-anchor:start;"
             transform="rotate(-0.000000, 419.742000, 95.145000)"
             x="419.742"
             y="95.145"
             id="text169">$L_{2}$</text>
        </g>
        <g
           id="line2d_21"
           transform="translate(0,4.5)"
           style="stroke-linecap:butt;stroke-linejoin:round;stroke-miterlimit:100000">
          <path
             d="m 371.742,108.501 h 26.88"
             style="fill:none;stroke:#ff0000;stroke-linecap:square;stroke-linejoin:round;stroke-miterlimit:100000"
             id="path172"
             inkscape:connector-curvature="0" />
        </g>
        <g
           id="line2d_22" />
        <g
           id="text_18"
           transform="translate(0,4.5)"
           style="stroke-linecap:butt;stroke-linejoin:round;stroke-miterlimit:100000">
          <text
             style="font-style:normal;font-weight:400;font-size:19.20000076px;font-family:'Bitstream Vera Sans';text-anchor:start;stroke-linecap:butt;stroke-linejoin:round;stroke-miterlimit:100000"
             x="419.742"
             y="115.221"
             id="text176">$L_{3}$</text>
        </g>
      </g>
    </g>
  </g>
  <defs
     id="defs185">
    <clipPath
       id="p0763551f77">
      <rect
         height="345.6"
         width="446.4"
         x="72.0"
         y="43.2"
         id="rect182" />
    </clipPath>
  </defs>
</svg>
