<?xml version="1.0" encoding="UTF-8" standalone="no"?>
<!-- Created with matplotlib (http://matplotlib.org/) -->

<svg
   xmlns:dc="http://purl.org/dc/elements/1.1/"
   xmlns:cc="http://creativecommons.org/ns#"
   xmlns:rdf="http://www.w3.org/1999/02/22-rdf-syntax-ns#"
   xmlns:svg="http://www.w3.org/2000/svg"
   xmlns="http://www.w3.org/2000/svg"
   xmlns:xlink="http://www.w3.org/1999/xlink"
   xmlns:sodipodi="http://sodipodi.sourceforge.net/DTD/sodipodi-0.dtd"
   xmlns:inkscape="http://www.inkscape.org/namespaces/inkscape"
   height="432pt"
   version="1.1"
   viewBox="0 0 576 432"
   width="576pt"
   id="svg190"
   sodipodi:docname="L_q_copy.svg"
   inkscape:version="0.92.2 (5c3e80d, 2017-08-06)">
  <metadata
     id="metadata194">
    <rdf:RDF>
      <cc:Work
         rdf:about="">
        <dc:format>image/svg+xml</dc:format>
        <dc:type
           rdf:resource="http://purl.org/dc/dcmitype/StillImage" />
        <dc:title />
      </cc:Work>
    </rdf:RDF>
  </metadata>
  <sodipodi:namedview
     pagecolor="#ffffff"
     bordercolor="#666666"
     borderopacity="1"
     objecttolerance="10"
     gridtolerance="10"
     guidetolerance="10"
     inkscape:pageopacity="0"
     inkscape:pageshadow="2"
     inkscape:window-width="1920"
     inkscape:window-height="951"
     id="namedview192"
     showgrid="false"
     inkscape:zoom="0.81944444"
     inkscape:cx="108.4155"
     inkscape:cy="316.41618"
     inkscape:window-x="0"
     inkscape:window-y="27"
     inkscape:window-maximized="1"
     inkscape:current-layer="text_12" />
  <defs
     id="defs4">
    <style
       type="text/css"
       id="style2">
*{stroke-linecap:butt;stroke-linejoin:round;stroke-miterlimit:100000;}
  </style>
  </defs>
  <g
     id="figure_1">
    <g
       id="patch_1">
      <path
         d="M 0 432  L 576 432  L 576 0  L 0 0  z "
         style="fill:#ffffff;"
         id="path6" />
    </g>
    <g
       id="axes_1">
      <g
         id="patch_2">
        <path
           d="M 72 388.8  L 518.4 388.8  L 518.4 43.2  L 72 43.2  z "
           style="fill:#ffffff;"
           id="path9" />
      </g>
      <g
         id="line2d_1">
        <path
           clip-path="url(#pd82b9efc50)"
           d="M 72 43.2  L 518.4 43.2  L 518.4 43.2  "
           style="fill:none;stroke:#0000ff;stroke-linecap:square;"
           id="path12" />
      </g>
      <g
         id="line2d_2">
        <path
           clip-path="url(#pd82b9efc50)"
           d="M 72 388.8  L 518.4 43.2  L 518.4 43.2  "
           style="fill:none;stroke:#008000;stroke-linecap:square;"
           id="path15" />
      </g>
      <g
         id="line2d_3">
        <path
           clip-path="url(#pd82b9efc50)"
           d="M 72 43.2  L 79.156713 59.555558  L 86.313427 75.378145  L 93.47014 90.667761  L 100.626854 105.424406  L 107.783567 119.648079  L 114.940281 133.33878  L 122.096994 146.49651  L 128.359118 157.572321  L 134.621242 168.240076  L 140.883367 178.499775  L 147.145491 188.351417  L 153.407615 197.795003  L 159.669739 206.830533  L 165.931864 215.458007  L 172.193988 223.677425  L 178.456112 231.488786  L 183.823647 237.859459  L 189.191182 243.930336  L 194.558717 249.701416  L 199.926253 255.172701  L 205.293788 260.344188  L 210.661323 265.215879  L 216.028858 269.787774  L 221.396393 274.059873  L 226.763928 278.032175  L 232.131463 281.704681  L 237.498998 285.07739  L 242.866533 288.150303  L 248.234068 290.92342  L 252.707014 293.005339  L 257.17996 294.879066  L 261.652906 296.544602  L 266.125852 298.001945  L 270.598798 299.251097  L 275.071743 300.292057  L 279.544689 301.124824  L 284.017635 301.7494  L 288.490581 302.165784  L 292.963527 302.373976  L 297.436473 302.373976  L 301.909419 302.165784  L 306.382365 301.7494  L 310.855311 301.124824  L 315.328257 300.292057  L 319.801202 299.251097  L 324.274148 298.001945  L 328.747094 296.544602  L 333.22004 294.879066  L 337.692986 293.005339  L 342.165932 290.92342  L 346.638878 288.633308  L 352.006413 285.610361  L 357.373948 282.287618  L 362.741483 278.665078  L 368.109018 274.742742  L 373.476553 270.52061  L 378.844088 265.998681  L 384.211623 261.176956  L 389.579158 256.055434  L 394.946693 250.634116  L 400.314228 244.913002  L 405.681764 238.892091  L 411.049299 232.571384  L 416.416834 225.950881  L 422.678958 217.84805  L 428.941082 209.337164  L 435.203206 200.418222  L 441.465331 191.091223  L 447.727455 181.356168  L 453.989579 171.213057  L 460.251703 160.66189  L 466.513828 149.702666  L 472.775952 138.335387  L 479.932665 124.844549  L 487.089379 110.82074  L 494.246092 96.26396  L 501.402806 81.174209  L 508.559519 65.551486  L 515.716232 49.395792  L 518.4 43.2  L 518.4 43.2  "
           style="fill:none;stroke:#ff0000;stroke-linecap:square;"
           id="path18" />
      </g>
      <g
         id="line2d_4">
        <path
           clip-path="url(#pd82b9efc50)"
           d="M 72 388.8  L 76.472946 368.539448  L 80.945892 349.298995  L 85.418838 331.057779  L 89.891784 313.794941  L 94.364729 297.489618  L 98.837675 282.120951  L 103.310621 267.668077  L 107.783567 254.110137  L 111.361924 243.894119  L 114.940281 234.226826  L 118.518637 225.097577  L 122.096994 216.495693  L 125.675351 208.410492  L 129.253707 200.831293  L 132.832064 193.747415  L 136.410421 187.148179  L 139.988778 181.022902  L 143.567134 175.360905  L 147.145491 170.151506  L 150.723848 165.384025  L 154.302204 161.04778  L 157.880561 157.132092  L 161.458918 153.626279  L 165.037275 150.51966  L 167.721042 148.445243  L 170.40481 146.584858  L 173.088577 144.934  L 175.772345 143.488163  L 178.456112 142.242842  L 181.13988 141.193529  L 183.823647 140.33572  L 186.507415 139.664908  L 189.191182 139.176588  L 191.87495 138.866252  L 194.558717 138.729396  L 198.137074 138.808991  L 201.715431 139.178301  L 205.293788 139.826647  L 208.872144 140.743348  L 212.450501 141.917723  L 216.028858 143.339091  L 219.607214 144.996772  L 223.185571 146.880084  L 226.763928 148.978347  L 231.236874 151.88718  L 235.70982 155.094323  L 240.182766 158.578916  L 244.655711 162.320099  L 250.023246 167.118844  L 255.390782 172.22099  L 261.652906 178.508867  L 267.91503 185.1034  L 275.966333 193.94056  L 285.806814 205.123982  L 317.117435 241.043461  L 324.274148 248.808706  L 330.536273 255.321464  L 336.798397 261.511212  L 342.165932 266.516229  L 347.533467 271.20583  L 352.006413 274.84688  L 356.479359 278.222997  L 360.952305 281.313319  L 365.425251 284.096985  L 369.003607 286.089108  L 372.581964 287.86094  L 376.160321 289.401799  L 379.738677 290.701006  L 383.317034 291.747879  L 386.895391 292.531738  L 390.473747 293.041901  L 394.052104 293.267689  L 396.735872 293.243982  L 399.419639 293.0498  L 402.103407 292.680637  L 404.787174 292.131987  L 407.470942 291.399343  L 410.154709 290.4782  L 412.838477 289.364052  L 415.522244 288.052393  L 418.206012 286.538717  L 420.88978 284.818517  L 423.573547 282.887289  L 426.257315 280.740525  L 428.941082 278.373721  L 432.519439 274.867908  L 436.097796 270.95222  L 439.676152 266.615975  L 443.254509 261.848494  L 446.832866 256.639095  L 450.411222 250.977098  L 453.989579 244.851821  L 457.567936 238.252585  L 461.146293 231.168707  L 464.724649 223.589508  L 468.303006 215.504307  L 471.881363 206.902423  L 475.459719 197.773174  L 479.038076 188.105881  L 482.616433 177.889863  L 486.19479 167.114438  L 490.667735 152.84222  L 495.140681 137.65838  L 499.613627 121.542058  L 504.086573 104.472391  L 508.559519 86.42852  L 513.032465 67.389583  L 517.505411 47.33472  L 518.4 43.2  L 518.4 43.2  "
           style="fill:none;stroke:#00bfbf;stroke-linecap:square;"
           id="path21" />
      </g>
      <g
         id="line2d_5">
        <path
           clip-path="url(#pd82b9efc50)"
           d="M 72 43.2  L 75.578357 69.916497  L 79.156713 94.708417  L 82.73507 117.648728  L 86.313427 138.8092  L 89.891784 158.260402  L 92.575551 171.768872  L 95.259319 184.383748  L 97.943086 196.133473  L 100.626854 207.046114  L 103.310621 217.149356  L 105.994389 226.470506  L 108.678156 235.036492  L 111.361924 242.87386  L 114.045691 250.008781  L 116.729459 256.467043  L 119.413226 262.274058  L 122.096994 267.454856  L 124.780762 272.034089  L 127.464529 276.036029  L 130.148297 279.484571  L 131.937475 281.487782  L 133.726653 283.26237  L 135.515832 284.815134  L 137.30501 286.152796  L 139.094188 287.282007  L 140.883367 288.209339  L 142.672545 288.941292  L 144.461723 289.484289  L 146.250902 289.84468  L 148.04008 290.028738  L 149.829259 290.042664  L 151.618437 289.892581  L 153.407615 289.584538  L 156.091383 288.83935  L 158.77515 287.772026  L 161.458918 286.402036  L 164.142685 284.748468  L 166.826453 282.830033  L 169.51022 280.665062  L 173.088577 277.425905  L 176.666934 273.821835  L 180.245291 269.893155  L 184.718236 264.585286  L 189.191182 258.904974  L 194.558717 251.696483  L 200.820842 242.892929  L 210.661323 228.601833  L 223.185571 210.464164  L 230.342285 200.525407  L 235.70982 193.418561  L 241.077355 186.687994  L 245.550301 181.413139  L 250.023246 176.478239  L 254.496192 171.914316  L 258.074549 168.549257  L 261.652906 165.452693  L 265.231263 162.636462  L 268.809619 160.111202  L 272.387976 157.88635  L 275.966333 155.97015  L 279.544689 154.369642  L 282.228457 153.379994  L 284.912224 152.573257  L 287.595992 151.951075  L 290.27976 151.514712  L 292.963527 151.265052  L 295.647295 151.202602  L 298.331062 151.327488  L 301.01483 151.639457  L 303.698597 152.137877  L 306.382365 152.821737  L 309.066132 153.689645  L 311.7499 154.739832  L 315.328257 156.419858  L 318.906613 158.413929  L 322.48497 160.714702  L 326.063327 163.313637  L 329.641683 166.200995  L 333.22004 169.365839  L 336.798397 172.796032  L 341.271343 177.436492  L 345.744289 182.441957  L 350.217234 187.780824  L 355.58477 194.578728  L 360.952305 201.741618  L 367.214429 210.464164  L 376.160321 223.370386  L 392.262926 246.707372  L 398.52505 255.347597  L 403.892585 262.353823  L 408.365531 267.819354  L 411.943888 271.895599  L 415.522244 275.666937  L 419.100601 279.093663  L 421.784369 281.412996  L 424.468136 283.497802  L 427.151904 285.330003  L 429.835671 286.891143  L 432.519439 288.162384  L 435.203206 289.124511  L 437.886974 289.757929  L 439.676152 289.987743  L 441.465331 290.056583  L 443.254509 289.958361  L 445.043687 289.686916  L 446.832866 289.236011  L 448.622044 288.599334  L 450.411222 287.7705  L 452.200401 286.743046  L 453.989579 285.510435  L 455.778758 284.066058  L 457.567936 282.403227  L 459.357114 280.515182  L 461.146293 278.395086  L 462.935471 276.036029  L 465.619238 272.034089  L 468.303006 267.454856  L 470.986774 262.274058  L 473.670541 256.467043  L 476.354309 250.008781  L 479.038076 242.87386  L 481.721844 235.036492  L 484.405611 226.470506  L 487.089379 217.149356  L 489.773146 207.046114  L 492.456914 196.133473  L 495.140681 184.383748  L 497.824449 171.768872  L 500.508216 158.260402  L 503.191984 143.829514  L 505.875752 128.447005  L 509.454108 106.40551  L 513.032465 82.54844  L 516.610822 56.803428  L 518.4 43.2  L 518.4 43.2  "
           style="fill:none;stroke:#bf00bf;stroke-linecap:square;"
           id="path24" />
      </g>
      <g
         id="line2d_6">
        <path
           clip-path="url(#pd82b9efc50)"
           d="M 72 388.8  L 74.683768 358.924391  L 77.367535 331.547814  L 80.051303 306.549171  L 82.73507 283.810696  L 85.418838 263.217911  L 88.102605 244.65959  L 90.786373 228.027712  L 93.47014 213.217426  L 96.153908 200.127006  L 97.943086 192.306702  L 99.732265 185.178406  L 101.521443 178.714239  L 103.310621 172.886915  L 105.0998 167.66973  L 106.888978 163.036563  L 108.678156 158.961865  L 110.467335 155.420655  L 112.256513 152.388519  L 114.045691 149.841597  L 115.83487 147.756585  L 117.624048 146.110724  L 119.413226 144.881797  L 121.202405 144.048125  L 122.991583 143.588558  L 124.780762 143.482474  L 126.56994 143.709768  L 128.359118 144.250853  L 130.148297 145.086649  L 131.937475 146.198582  L 133.726653 147.568574  L 135.515832 149.179044  L 137.30501 151.012894  L 139.988778 154.146299  L 142.672545 157.690981  L 145.356313 161.595252  L 148.934669 167.275328  L 152.513026 173.396515  L 156.985972 181.511134  L 163.248096 193.404994  L 176.666934 219.086625  L 182.034469 228.799119  L 186.507415 236.436486  L 190.085772 242.182375  L 193.664128 247.56121  L 197.242485 252.538255  L 200.820842 257.083676  L 203.504609 260.194219  L 206.188377 263.038867  L 208.872144 265.610127  L 211.555912 267.901866  L 214.239679 269.909271  L 216.923447 271.628811  L 219.607214 273.058189  L 222.290982 274.196307  L 224.974749 275.043224  L 227.658517 275.600113  L 230.342285 275.869221  L 233.026052 275.853826  L 235.70982 275.558202  L 238.393587 274.98757  L 241.077355 274.148063  L 243.761122 273.046682  L 246.44489 271.691255  L 249.128657 270.090397  L 251.812425 268.25347  L 254.496192 266.190539  L 258.074549 263.107037  L 261.652906 259.668029  L 265.231263 255.902444  L 268.809619 251.840832  L 273.282565 246.3964  L 277.755511 240.604769  L 283.123046 233.292173  L 290.27976 223.126095  L 308.171543 197.466225  L 313.539078 190.212352  L 318.012024 184.484808  L 322.48497 179.117739  L 326.063327 175.127187  L 329.641683 171.440443  L 333.22004 168.087667  L 336.798397 165.097355  L 339.482164 163.108598  L 342.165932 161.349277  L 344.849699 159.829225  L 347.533467 158.557561  L 350.217234 157.542641  L 352.901002 156.792023  L 355.58477 156.312423  L 358.268537 156.109675  L 360.952305 156.188688  L 363.636072 156.553408  L 366.31984 157.206775  L 369.003607 158.150684  L 371.687375 159.385938  L 374.371142 160.912217  L 377.05491 162.728027  L 379.738677 164.830666  L 382.422445 167.216177  L 385.106212 169.879314  L 387.78998 172.813495  L 390.473747 176.010763  L 394.052104 180.666625  L 397.630461 185.747102  L 401.208818 191.221154  L 404.787174 197.052786  L 409.26012 204.782033  L 414.627655 214.578858  L 421.784369 228.217557  L 433.414028 250.488866  L 437.886974 258.603485  L 441.465331 264.724672  L 445.043687 270.404748  L 447.727455 274.309019  L 450.411222 277.853701  L 453.09499 280.987106  L 454.884168 282.820956  L 456.673347 284.431426  L 458.462525 285.801418  L 460.251703 286.913351  L 462.040882 287.749147  L 463.83006 288.290232  L 465.619238 288.517526  L 467.408417 288.411442  L 469.197595 287.951875  L 470.986774 287.118203  L 472.775952 285.889276  L 474.56513 284.243415  L 476.354309 282.158403  L 478.143487 279.611481  L 479.932665 276.579345  L 481.721844 273.038135  L 483.511022 268.963437  L 485.3002 264.33027  L 487.089379 259.113085  L 488.878557 253.285761  L 490.667735 246.821594  L 492.456914 239.693298  L 494.246092 231.872994  L 496.035271 223.332209  L 497.824449 214.041867  L 500.508216 198.635841  L 503.191984 181.373621  L 505.875752 162.149305  L 508.559519 140.853809  L 511.243287 117.374825  L 513.927054 91.596787  L 516.610822 63.40082  L 518.4 43.2  L 518.4 43.2  "
           style="fill:none;stroke:#bfbf00;stroke-linecap:square;"
           id="path27" />
      </g>
      <g
         id="patch_3">
        <path
           d="M 72 388.8  L 518.4 388.8  "
           style="fill:none;stroke:#000000;stroke-linecap:square;stroke-linejoin:miter;"
           id="path30" />
      </g>
      <g
         id="patch_4">
        <path
           d="M 72 388.8  L 72 43.2  "
           style="fill:none;stroke:#000000;stroke-linecap:square;stroke-linejoin:miter;"
           id="path33" />
      </g>
      <g
         id="matplotlib.axis_1">
        <g
           id="xtick_1">
          <g
             id="line2d_7">
            <defs
               id="defs37">
              <path
                 d="M 0 0  L 0 -4  "
                 id="m3fe63dba8d"
                 style="stroke:#000000;stroke-width:0.5;" />
            </defs>
            <g
               id="g41">
              <use
                 style="stroke:#000000;stroke-width:0.5;"
                 x="72.0"
                 xlink:href="#m3fe63dba8d"
                 y="388.8"
                 id="use39" />
            </g>
          </g>
          <g
             id="text_1">
            <text
               style="font-family:Bitstream Vera Sans;font-size:16.0px;font-style:normal;font-weight:400;text-anchor:middle;"
               x="72.0"
               y="404.9575"
               id="text44"
               transform="rotate(-0.000000, 72.000000, 404.957500)">−1.0</text>
          </g>
        </g>
        <g
           id="xtick_2">
          <g
             id="line2d_8">
            <g
               id="g50">
              <use
                 style="stroke:#000000;stroke-width:0.5;"
                 x="183.6"
                 xlink:href="#m3fe63dba8d"
                 y="388.8"
                 id="use48" />
            </g>
          </g>
          <g
             id="text_2">
            <text
               style="font-family:Bitstream Vera Sans;font-size:16.0px;font-style:normal;font-weight:400;text-anchor:middle;"
               x="183.6"
               y="404.9575"
               id="text53"
               transform="rotate(-0.000000, 183.600000, 404.957500)">−0.5</text>
          </g>
        </g>
        <g
           id="xtick_3">
          <g
             id="line2d_9">
            <g
               id="g59">
              <use
                 style="stroke:#000000;stroke-width:0.5;"
                 x="295.2"
                 xlink:href="#m3fe63dba8d"
                 y="388.8"
                 id="use57" />
            </g>
          </g>
          <g
             id="text_3">
            <text
               style="font-family:Bitstream Vera Sans;font-size:16.0px;font-style:normal;font-weight:400;text-anchor:middle;"
               x="295.2"
               y="404.9575"
               id="text62"
               transform="rotate(-0.000000, 295.200000, 404.957500)">0.0</text>
          </g>
        </g>
        <g
           id="xtick_4">
          <g
             id="line2d_10">
            <g
               id="g68">
              <use
                 style="stroke:#000000;stroke-width:0.5;"
                 x="406.8"
                 xlink:href="#m3fe63dba8d"
                 y="388.8"
                 id="use66" />
            </g>
          </g>
          <g
             id="text_4">
            <text
               style="font-family:Bitstream Vera Sans;font-size:16.0px;font-style:normal;font-weight:400;text-anchor:middle;"
               x="406.8"
               y="404.9575"
               id="text71"
               transform="rotate(-0.000000, 406.800000, 404.957500)">0.5</text>
          </g>
        </g>
        <g
           id="xtick_5">
          <g
             id="line2d_11">
            <g
               id="g77">
              <use
                 style="stroke:#000000;stroke-width:0.5;"
                 x="518.4"
                 xlink:href="#m3fe63dba8d"
                 y="388.8"
                 id="use75" />
            </g>
          </g>
          <g
             id="text_5">
            <text
               style="font-style:normal;font-weight:400;font-size:16px;line-height:1.25;font-family:'Bitstream Vera Sans';text-anchor:middle;stroke-linecap:butt;stroke-linejoin:round;stroke-miterlimit:100000"
               x="518.40002"
               y="404.95749"
               id="text80">
              <tspan
                 style="font-style:normal;font-variant:normal;font-weight:normal;font-stretch:normal;line-height:1.25;font-family:'Bitstream Vera Sans';-inkscape-font-specification:'Bitstream Vera Sans';stroke-linecap:butt;stroke-linejoin:round;stroke-miterlimit:100000"
                 id="tspan940">1.0</tspan>
            </text>
          </g>
        </g>
        <g
           id="text_6">
          <text
             style="font-family:Bitstream Vera Sans;font-size:16.0px;font-style:normal;font-weight:400;text-anchor:middle;"
             x="295.2"
             y="425.4425"
             id="text84"
             transform="rotate(-0.000000, 295.200000, 425.442500)">$x$</text>
        </g>
      </g>
      <g
         id="matplotlib.axis_2">
        <g
           id="ytick_1">
          <g
             id="line2d_12">
            <defs
               id="defs89">
              <path
                 d="M 0 0  L 4 0  "
                 id="m963af2d782"
                 style="stroke:#000000;stroke-width:0.5;" />
            </defs>
            <g
               id="g93">
              <use
                 style="stroke:#000000;stroke-width:0.5;"
                 x="72.0"
                 xlink:href="#m963af2d782"
                 y="388.8"
                 id="use91" />
            </g>
          </g>
          <g
             id="text_7">
            <text
               style="font-family:Bitstream Vera Sans;font-size:16.0px;font-style:normal;font-weight:400;text-anchor:end;"
               x="68.0"
               y="393.215"
               id="text96"
               transform="rotate(-0.000000, 68.000000, 393.215000)">−1.0</text>
          </g>
        </g>
        <g
           id="ytick_2">
          <g
             id="line2d_13">
            <g
               id="g102">
              <use
                 style="stroke:#000000;stroke-width:0.5;"
                 x="72.0"
                 xlink:href="#m963af2d782"
                 y="302.4"
                 id="use100" />
            </g>
          </g>
          <g
             id="text_8">
            <text
               style="font-family:Bitstream Vera Sans;font-size:16.0px;font-style:normal;font-weight:400;text-anchor:end;"
               x="68.0"
               y="306.815"
               id="text105"
               transform="rotate(-0.000000, 68.000000, 306.815000)">−0.5</text>
          </g>
        </g>
        <g
           id="ytick_3">
          <g
             id="line2d_14">
            <g
               id="g111">
              <use
                 style="stroke:#000000;stroke-width:0.5;"
                 x="72.0"
                 xlink:href="#m963af2d782"
                 y="216.0"
                 id="use109" />
            </g>
          </g>
          <g
             id="text_9">
            <text
               style="font-family:Bitstream Vera Sans;font-size:16.0px;font-style:normal;font-weight:400;text-anchor:end;"
               x="68.0"
               y="220.415"
               id="text114"
               transform="rotate(-0.000000, 68.000000, 220.415000)">0.0</text>
          </g>
        </g>
        <g
           id="ytick_4">
          <g
             id="line2d_15">
            <g
               id="g120">
              <use
                 style="stroke:#000000;stroke-width:0.5;"
                 x="72.0"
                 xlink:href="#m963af2d782"
                 y="129.6"
                 id="use118" />
            </g>
          </g>
          <g
             id="text_10">
            <text
               style="font-family:Bitstream Vera Sans;font-size:16.0px;font-style:normal;font-weight:400;text-anchor:end;"
               x="68.0"
               y="134.015"
               id="text123"
               transform="rotate(-0.000000, 68.000000, 134.015000)">0.5</text>
          </g>
        </g>
        <g
           id="ytick_5">
          <g
             id="line2d_16">
            <g
               id="g129">
              <use
                 style="stroke:#000000;stroke-width:0.5;"
                 x="72.0"
                 xlink:href="#m963af2d782"
                 y="43.2"
                 id="use127" />
            </g>
          </g>
          <g
             id="text_11">
            <text
               style="font-family:Bitstream Vera Sans;font-size:16.0px;font-style:normal;font-weight:400;text-anchor:end;"
               x="68.0"
               y="47.615"
               id="text132"
               transform="rotate(-0.000000, 68.000000, 47.615000)">1.0</text>
          </g>
        </g>
        <g
           id="text_12">
          <text
             style="font-style:normal;font-weight:400;font-size:16px;font-family:'Bitstream Vera Sans';text-anchor:middle;stroke-linecap:butt;stroke-linejoin:round;stroke-miterlimit:100000"
             transform="rotate(-90,20.375,216)"
             x="20.375"
             y="216"
             id="text136">$L_{q}(x)$</text>
        </g>
      </g>
      <g
         id="legend_1"
         transform="translate(110.6682,253.04835)"
         style="stroke-linecap:butt;stroke-linejoin:round;stroke-miterlimit:100000">
        <g
           id="line2d_17"
           style="stroke-linecap:butt;stroke-linejoin:round;stroke-miterlimit:100000">
          <path
             d="m 118.19252,72.232095 h 26.88"
             style="fill:none;stroke:#0000ff;stroke-linecap:square;stroke-linejoin:round;stroke-miterlimit:100000"
             id="path140"
             inkscape:connector-curvature="0" />
        </g>
        <g
           id="line2d_18"
           style="stroke-linecap:butt;stroke-linejoin:round;stroke-miterlimit:100000" />
        <g
           id="text_13"
           style="stroke-linecap:butt;stroke-linejoin:round;stroke-miterlimit:100000"
           transform="translate(3.7575073)">
          <text
             style="font-style:normal;font-weight:400;font-size:19.20000076px;font-family:'Bitstream Vera Sans';text-anchor:start;stroke-linecap:butt;stroke-linejoin:round;stroke-miterlimit:100000"
             x="166.1925"
             y="78.952095"
             id="text144">$L_{0}$</text>
        </g>
        <g
           id="line2d_19"
           style="stroke-linecap:butt;stroke-linejoin:round;stroke-miterlimit:100000">
          <path
             d="m 118.19252,92.308095 h 26.88"
             style="fill:none;stroke:#008000;stroke-linecap:square;stroke-linejoin:round;stroke-miterlimit:100000"
             id="path147"
             inkscape:connector-curvature="0" />
        </g>
        <g
           id="line2d_20"
           style="stroke-linecap:butt;stroke-linejoin:round;stroke-miterlimit:100000" />
        <g
           id="text_14"
           style="stroke-linecap:butt;stroke-linejoin:round;stroke-miterlimit:100000"
           transform="translate(3.7575073)">
          <text
             style="font-style:normal;font-weight:400;font-size:19.20000076px;font-family:'Bitstream Vera Sans';text-anchor:start;stroke-linecap:butt;stroke-linejoin:round;stroke-miterlimit:100000"
             x="166.1925"
             y="99.028091"
             id="text151">$L_{1}$</text>
        </g>
        <g
           id="line2d_21"
           style="stroke-linecap:butt;stroke-linejoin:round;stroke-miterlimit:100000">
          <path
             d="m 118.19252,112.38409 h 26.88"
             style="fill:none;stroke:#ff0000;stroke-linecap:square;stroke-linejoin:round;stroke-miterlimit:100000"
             id="path154"
             inkscape:connector-curvature="0" />
        </g>
        <g
           id="line2d_22"
           style="stroke-linecap:butt;stroke-linejoin:round;stroke-miterlimit:100000" />
        <g
           id="text_15"
           style="stroke-linecap:butt;stroke-linejoin:round;stroke-miterlimit:100000"
           transform="translate(3.7575073)">
          <text
             style="font-style:normal;font-weight:400;font-size:19.20000076px;font-family:'Bitstream Vera Sans';text-anchor:start;stroke-linecap:butt;stroke-linejoin:round;stroke-miterlimit:100000"
             x="166.1925"
             y="119.1041"
             id="text158">$L_{2}$</text>
        </g>
        <g
           id="line2d_23"
           style="stroke-linecap:butt;stroke-linejoin:round;stroke-miterlimit:100000"
           transform="translate(-3.7575073)">
          <path
             d="m 279.98814,73.566487 h 26.88"
             style="fill:none;stroke:#00bfbf;stroke-linecap:square;stroke-linejoin:round;stroke-miterlimit:100000"
             id="path161"
             inkscape:connector-curvature="0" />
        </g>
        <g
           id="line2d_24"
           style="stroke-linecap:butt;stroke-linejoin:round;stroke-miterlimit:100000" />
        <g
           id="text_16"
           style="stroke-linecap:butt;stroke-linejoin:round;stroke-miterlimit:100000">
          <text
             style="font-style:normal;font-weight:400;font-size:19.20000076px;font-family:'Bitstream Vera Sans';text-anchor:start;stroke-linecap:butt;stroke-linejoin:round;stroke-miterlimit:100000"
             x="327.98813"
             y="80.286491"
             id="text165">$L_{3}$</text>
        </g>
        <g
           id="line2d_25"
           style="stroke-linecap:butt;stroke-linejoin:round;stroke-miterlimit:100000"
           transform="translate(-3.7575073)">
          <path
             d="m 279.98814,93.642487 h 26.88"
             style="fill:none;stroke:#bf00bf;stroke-linecap:square;stroke-linejoin:round;stroke-miterlimit:100000"
             id="path168"
             inkscape:connector-curvature="0" />
        </g>
        <g
           id="line2d_26"
           style="stroke-linecap:butt;stroke-linejoin:round;stroke-miterlimit:100000" />
        <g
           id="text_17"
           style="stroke-linecap:butt;stroke-linejoin:round;stroke-miterlimit:100000">
          <text
             style="font-style:normal;font-weight:400;font-size:19.20000076px;font-family:'Bitstream Vera Sans';text-anchor:start;stroke-linecap:butt;stroke-linejoin:round;stroke-miterlimit:100000"
             x="327.98813"
             y="100.3625"
             id="text172">$L_{4}$</text>
        </g>
        <g
           id="line2d_27"
           style="stroke-linecap:butt;stroke-linejoin:round;stroke-miterlimit:100000"
           transform="translate(-3.7575073)">
          <path
             d="m 279.98814,113.71849 h 26.88"
             style="fill:none;stroke:#bfbf00;stroke-linecap:square;stroke-linejoin:round;stroke-miterlimit:100000"
             id="path175"
             inkscape:connector-curvature="0" />
        </g>
        <g
           id="line2d_28"
           style="stroke-linecap:butt;stroke-linejoin:round;stroke-miterlimit:100000" />
        <g
           id="text_18"
           style="stroke-linecap:butt;stroke-linejoin:round;stroke-miterlimit:100000">
          <text
             style="font-style:normal;font-weight:400;font-size:19.20000076px;font-family:'Bitstream Vera Sans';text-anchor:start;stroke-linecap:butt;stroke-linejoin:round;stroke-miterlimit:100000"
             x="327.98813"
             y="120.4385"
             id="text179">$L_{5}$</text>
        </g>
      </g>
    </g>
  </g>
  <defs
     id="defs188">
    <clipPath
       id="pd82b9efc50">
      <rect
         height="345.6"
         width="446.4"
         x="72.0"
         y="43.2"
         id="rect185" />
    </clipPath>
  </defs>
</svg>
